<svg width="22" height="22" viewBox="0 0 22 22" fill="none" xmlns="http://www.w3.org/2000/svg">
<g id="Frame">
<g id="Group">
<g id="Group_2">
<g id="Group 1171275006">
<path id="Vector" d="M13.75 3.4375C13.9323 3.4375 14.1072 3.36507 14.2361 3.23614C14.3651 3.1072 14.4375 2.93234 14.4375 2.75C14.4375 2.56766 14.3651 2.3928 14.2361 2.26386C14.1072 2.13493 13.9323 2.0625 13.75 2.0625H10.9587C9.27483 2.0625 7.95575 2.0625 6.908 2.17617C5.84008 2.29167 4.97383 2.53183 4.235 3.069C3.78757 3.39409 3.39409 3.78757 3.069 4.235C2.53183 4.97475 2.29167 5.83917 2.17617 6.908C2.0625 7.95575 2.0625 9.27483 2.0625 10.9587V11.0413C2.0625 12.7252 2.0625 14.0442 2.17617 15.0911C2.29167 16.1599 2.53183 17.0252 3.069 17.765C3.39409 18.2124 3.78757 18.6059 4.235 18.931C4.97475 19.4682 5.83917 19.7083 6.908 19.8238C7.95575 19.9375 9.27483 19.9375 10.9587 19.9375H11.0413C12.7252 19.9375 14.0443 19.9375 15.092 19.8238C16.1599 19.7083 17.0262 19.4682 17.765 18.931C18.2124 18.6059 18.6059 18.2124 18.931 17.765C19.4682 17.0252 19.7083 16.1608 19.8238 15.092C19.9375 14.0443 19.9375 12.7252 19.9375 11.0413V8.25C19.9375 8.06766 19.8651 7.8928 19.7361 7.76386C19.6072 7.63493 19.4323 7.5625 19.25 7.5625C19.0677 7.5625 18.8928 7.63493 18.7639 7.76386C18.6349 7.8928 18.5625 8.06766 18.5625 8.25V11C18.5625 12.7343 18.5616 13.9792 18.4571 14.9435C18.3535 15.895 18.1564 16.4908 17.8182 16.9565C17.578 17.2865 17.2865 17.578 16.9565 17.8182C16.4908 18.1573 15.895 18.3544 14.9435 18.4571C13.9792 18.5616 12.7343 18.5625 11 18.5625C9.26567 18.5625 8.02083 18.5616 7.0565 18.4571C6.105 18.3535 5.50917 18.1564 5.0435 17.8182C4.71286 17.5779 4.42208 17.2871 4.18183 16.9565C3.84267 16.4908 3.64558 15.895 3.54292 14.9435C3.43842 13.9792 3.4375 12.7343 3.4375 11C3.4375 9.26567 3.43842 8.02083 3.54292 7.0565C3.64558 6.105 3.84358 5.50917 4.18183 5.0435C4.422 4.7135 4.7135 4.422 5.0435 4.18183C5.50917 3.84267 6.105 3.64558 7.0565 3.54292C8.02083 3.43842 9.26567 3.4375 11 3.4375H13.75Z" fill="#9D9D9D"/>
<path id="Vector_2" d="M5.79963 13.3164C5.72674 13.479 5.71985 13.6636 5.78043 13.8312C5.841 13.9988 5.9643 14.1364 6.12432 14.2148C6.28434 14.2933 6.46858 14.3065 6.63819 14.2518C6.8078 14.197 6.94952 14.0786 7.03346 13.9214L8.3718 11.1924C8.78705 10.3473 10.0071 10.3885 10.3637 11.2603C11.1695 13.2302 13.924 13.3228 14.8618 11.4124L16.2001 8.68352C16.273 8.52089 16.2799 8.3363 16.2193 8.16868C16.1588 8.00107 16.0355 7.86352 15.8754 7.78506C15.7154 7.70659 15.5312 7.69334 15.3616 7.74809C15.192 7.80283 15.0502 7.92131 14.9663 8.07852L13.628 10.8074C13.2127 11.6526 11.9926 11.6114 11.636 10.7396C10.8303 8.76969 8.07571 8.67711 7.13796 10.5874L5.79963 13.3164Z" fill="#9D9D9D"/>
<path id="Vector_3" fill-rule="evenodd" clip-rule="evenodd" d="M16.0417 3.66667C16.0417 4.27445 16.2832 4.85735 16.713 5.28712C17.1427 5.71689 17.7256 5.95833 18.3334 5.95833C18.9412 5.95833 19.5241 5.71689 19.9539 5.28712C20.3836 4.85735 20.6251 4.27445 20.6251 3.66667C20.6251 3.05888 20.3836 2.47598 19.9539 2.04621C19.5241 1.61644 18.9412 1.375 18.3334 1.375C17.7256 1.375 17.1427 1.61644 16.713 2.04621C16.2832 2.47598 16.0417 3.05888 16.0417 3.66667ZM17.4167 3.66667C17.4167 3.90978 17.5133 4.14294 17.6852 4.31485C17.8571 4.48676 18.0903 4.58333 18.3334 4.58333C18.5765 4.58333 18.8097 4.48676 18.9816 4.31485C19.1535 4.14294 19.2501 3.90978 19.2501 3.66667C19.2501 3.42355 19.1535 3.19039 18.9816 3.01849C18.8097 2.84658 18.5765 2.75 18.3334 2.75C18.0903 2.75 17.8571 2.84658 17.6852 3.01849C17.5133 3.19039 17.4167 3.42355 17.4167 3.66667Z" fill="#9D9D9D"/>
</g>
</g>
</g>
</g>
</svg>
