<svg width="29" height="29" viewBox="0 0 29 29" fill="none" xmlns="http://www.w3.org/2000/svg">
<g id="Group 1171274993">
<g id="Group">
<g id="Clip path group">
<mask id="mask0_56_325" style="mask-type:luminance" maskUnits="userSpaceOnUse" x="0" y="0" width="29" height="29">
<g id="b">
<path id="Vector" d="M28.7351 14.4377C28.7351 18.2482 27.2213 21.9026 24.5269 24.5971C21.8325 27.2915 18.178 28.8052 14.3675 28.8052C10.557 28.8052 6.90259 27.2915 4.20815 24.5971C1.51372 21.9026 0 18.2482 0 14.4377C0 10.6272 1.51372 6.97275 4.20815 4.27831C6.90259 1.58388 10.557 0.0701599 14.3675 0.0701599C18.178 0.0701599 21.8325 1.58388 24.5269 4.27831C27.2213 6.97275 28.7351 10.6272 28.7351 14.4377Z" fill="white"/>
</g>
</mask>
<g mask="url(#mask0_56_325)">
<g id="Group_2">
<path id="Vector_2" d="M-7.14893 22.1703H35.94V19.9594H-7.14893V22.1703Z" fill="white"/>
<path id="Vector_3" d="M-7.14893 19.9593H35.94V17.7493H-7.14893V19.9593Z" fill="#CA4638"/>
<path id="Vector_4" d="M-7.14893 26.5885H35.94V24.3786H-7.14893V26.5885Z" fill="white"/>
<path id="Vector_5" d="M-7.14893 28.7994H35.94V26.5885H-7.14893V28.7994ZM-7.14893 24.3785H35.94V22.1701H-7.14893V24.3785Z" fill="#CA4638"/>
<path id="Vector_6" d="M-7.14893 17.6452H35.94V15.4368H-7.14893V17.6452Z" fill="white"/>
<path id="Vector_7" d="M-7.14893 11.1203H35.94V8.91204H-7.14893V11.1203Z" fill="#CA4638"/>
<path id="Vector_8" d="M-7.14893 4.49128H35.94V2.28042H-7.14893V4.49128Z" fill="white"/>
<g id="Group_3">
<path id="Vector_9" d="M-7.14893 6.70109H35.94V4.49105H-7.14893V6.70109ZM-7.14893 15.5411H35.94V13.3286H-7.14893V15.5411ZM-7.14893 2.28039H35.94V0.0745926H-7.14893V2.28039Z" fill="#CA4638"/>
</g>
<path id="Vector_10" d="M-7.14893 8.91194H35.94V6.70107H-7.14893V8.91194ZM-7.14893 13.3285H35.94V11.1202H-7.14893V13.3285Z" fill="white"/>
</g>
</g>
</g>
<g id="Clip path group_2">
<mask id="mask1_56_325" style="mask-type:luminance" maskUnits="userSpaceOnUse" x="0" y="0" width="29" height="29">
<g id="c">
<path id="Vector_11" d="M28.7415 14.3658C28.7415 18.1759 27.2279 21.8299 24.5338 24.524C21.8397 27.2181 18.1857 28.7316 14.3756 28.7316C10.5656 28.7316 6.91154 27.2181 4.21742 24.524C1.52331 21.8299 0.00976563 18.1759 0.00976562 14.3658C0.00976562 10.5557 1.52331 6.90173 4.21742 4.20761C6.91154 1.51349 10.5656 -4.57764e-05 14.3756 -4.57764e-05C18.1857 -4.57764e-05 21.8397 1.51349 24.5338 4.20761C27.2279 6.90173 28.7415 10.5557 28.7415 14.3658Z" fill="white"/>
</g>
</mask>
<g mask="url(#mask1_56_325)">
<path id="Vector_12" d="M0.0229492 15.5505H14.3868V0.00163269H0.0229492V15.5505Z" fill="#356BA0"/>
</g>
</g>
<g id="Group_4">
<path id="Vector_13" d="M11.0126 2.08153L11.12 2.41531H11.4705L11.1868 2.62149L11.2966 2.95527L11.0127 2.74891L10.7266 2.95527L10.8364 2.62149L10.5527 2.41531H10.9032L11.0126 2.08159M11.0126 5.01283L11.12 5.34637H11.4705L11.1868 5.55273L11.2966 5.88627L11.0127 5.6823L10.7266 5.88627L10.8364 5.55273L10.5527 5.34637H10.9032L11.0126 5.01283M11.0126 7.94563L11.12 8.28H11.4705L11.1868 8.48559L11.2966 8.8199L11.0127 8.61354L10.7266 8.8199L10.8364 8.48559L10.5527 8.28H10.9032L11.0126 7.94563M11.0126 10.9434L11.12 11.2794H11.4705L11.1868 11.4857L11.2966 11.8216L11.0127 11.613L10.7266 11.8216L10.8364 11.4857L10.5527 11.2794H10.9032L11.0126 10.9434M11.0126 13.8079L11.12 14.1423H11.4705L11.1868 14.3502L11.2966 14.6838L11.0127 14.4758L10.7266 14.6838L10.8364 14.3502L10.5527 14.1423H10.9032L11.0126 13.8079M8.38292 2.08153L8.49113 2.41531H8.84316L8.55846 2.62149L8.66672 2.95527L8.38304 2.74891L8.09852 2.95527L8.20642 2.62149L7.92274 2.41531H8.27477L8.38298 2.08159M8.38292 5.01283L8.49113 5.34637H8.84316L8.55846 5.55273L8.66672 5.88627L8.38304 5.6823L8.09852 5.88627L8.20642 5.55273L7.92274 5.34637H8.27477L8.38298 5.01283M8.38292 7.94563L8.49113 8.28H8.84316L8.55846 8.48559L8.66672 8.8199L8.38304 8.61354L8.09852 8.8199L8.20642 8.48559L7.92274 8.28H8.27477L8.38298 7.94563M8.38292 10.9434L8.49113 11.2794H8.84316L8.55846 11.4857L8.66672 11.8216L8.38304 11.613L8.09852 11.8216L8.20642 11.4857L7.92274 11.2794H8.27477L8.38298 10.9434M8.38292 13.8079L8.49113 14.1423H8.84316L8.55846 14.3502L8.66672 14.6838L8.38304 14.4758L8.09852 14.6838L8.20642 14.3502L7.92274 14.1423H8.27477L8.38298 13.8079M5.75535 5.01283L5.86278 5.34637H6.21326L5.92958 5.55273L6.03904 5.88627L5.75535 5.6823L5.46927 5.88627L5.5791 5.55273L5.29517 5.34637H5.64505L5.75535 5.01283ZM5.75535 7.94563L5.86278 8.28H6.21326L5.92958 8.48559L6.03904 8.8199L5.75535 8.61354L5.46927 8.8199L5.5791 8.48559L5.29517 8.28H5.64505L5.75535 7.94563ZM5.75535 10.9434L5.86278 11.2794H6.21326L5.92958 11.4857L6.03904 11.8216L5.75535 11.613L5.46927 11.8216L5.5791 11.4857L5.29517 11.2794H5.64505L5.75535 10.9434ZM5.75535 13.8079L5.86278 14.1423H6.21326L5.92958 14.3502L6.03904 14.6838L5.75535 14.4758L5.46927 14.6838L5.5791 14.3502L5.29517 14.1423H5.64505L5.75535 13.8079ZM3.12492 7.94563L3.233 8.28H3.58498L3.30129 8.48559L3.4095 8.8199L3.12504 8.61354L2.84111 8.8199L2.94932 8.48559L2.66485 8.28H3.01533L3.1251 7.94563M3.12492 10.9434L3.233 11.2794H3.58498L3.30129 11.4857L3.4095 11.8216L3.12504 11.613L2.84111 11.8216L2.94932 11.4857L2.66485 11.2794H3.01533L3.1251 10.9434M3.12492 13.8079L3.233 14.1423H3.58498L3.30129 14.3502L3.4095 14.6838L3.12504 14.4758L2.84111 14.6838L2.94932 14.3502L2.66485 14.1423H3.01533L3.1251 13.8079M12.3525 3.54562L12.4606 3.88156H12.8127L12.5281 4.08552L12.6364 4.42146L12.3527 4.21534L12.068 4.42146L12.177 4.08552L11.8925 3.88156H12.2437L12.3527 3.54562M12.3525 6.57346L12.4606 6.90724H12.8127L12.5281 7.11336L12.6364 7.44714L12.3527 7.24078L12.068 7.44714L12.177 7.11336L11.8925 6.90724H12.2437L12.3527 6.57346M12.3257 9.54007L12.4347 9.87361H12.786L12.502 10.08L12.6103 10.4136L12.3257 10.2056L12.042 10.4136L12.1501 10.08L11.8656 9.87361H12.2176L12.3259 9.54007M12.2995 12.4711L12.4086 12.8049H12.7606L12.4753 13.011L12.5848 13.3448L12.2995 13.1392L12.0166 13.3448L12.1248 13.011L11.8393 12.8049H12.1914L12.2995 12.4711ZM9.72271 3.54562L9.83169 3.88156H10.1837L9.89842 4.08552L10.0079 4.42146L9.72265 4.21534L9.43818 4.42146L9.54795 4.08552L9.26402 3.88156H9.6145L9.72271 3.54562ZM9.72271 6.57346L9.83169 6.90724H10.1837L9.89842 7.11336L10.0079 7.44714L9.72265 7.24078L9.43818 7.44714L9.54795 7.11336L9.26402 6.90724H9.6145L9.72271 6.57346ZM9.69739 9.54007L9.8056 9.87361H10.1576L9.87389 10.08L9.98197 10.4136L9.69745 10.2056L9.41376 10.4136L9.52197 10.08L9.23733 9.87361H9.58792L9.69745 9.54007M9.67124 12.4711L9.77944 12.8049H10.1308L9.84701 13.011L9.95522 13.3448L9.6713 13.1392L9.38683 13.3448L9.49504 13.011L9.21135 12.8049H9.56261L9.67142 12.4711M7.09376 3.44214L7.20263 3.77574H7.55389L7.2702 3.98204L7.37913 4.31564L7.09394 4.10946L6.81002 4.31564L6.919 3.98204L6.63454 3.77574H6.9858L7.094 3.44214M7.09376 6.46765L7.20263 6.80119H7.55389L7.2702 7.00916L7.37913 7.34115L7.09394 7.13712L6.81002 7.34115L6.919 7.00916L6.63454 6.80119H6.9858L7.094 6.46765M7.06845 9.43426L7.17558 9.7678H7.52761L7.24309 9.97416L7.35213 10.3077L7.06845 10.1014L6.78297 10.3077L6.89189 9.97416L6.60821 9.7678H6.95952L7.06845 9.43426ZM7.04158 12.3669L7.15056 12.7012H7.50182L7.21789 12.9052L7.32616 13.2412L7.04164 13.0348L6.75795 13.2412L6.86604 12.9052L6.58151 12.7012H6.93277L7.04176 12.3669M4.46626 6.43778L4.57417 6.77138H4.9256L4.6409 6.98008L4.74911 7.31362L4.4662 7.10576L4.18096 7.31362L4.29042 6.98008L4.0059 6.77138H4.35721L4.46614 6.43778M4.44017 9.40421L4.54759 9.73853H4.89963L4.6151 9.94645L4.72397 10.28L4.44028 10.0724L4.15576 10.28L4.26385 9.94645L3.98016 9.73853H4.33058L4.4404 9.40421M4.41329 12.3355L4.52222 12.6698H4.87353L4.58901 12.8777L4.69692 13.2113L4.41323 13.0034L4.12955 13.2113L4.23775 12.8777L3.95305 12.6698H4.30431L4.41329 12.3355ZM1.80949 9.35352L1.91847 9.6873H2.26973L1.98521 9.89348L2.09425 10.2272L1.80955 10.0209L1.52586 10.2272L1.63407 9.89348L1.34961 9.6873H1.70164L1.80967 9.35352M1.78435 12.2848L1.8916 12.6184H2.24363L1.95917 12.8247L2.06816 13.1583L1.78447 12.9521L1.49899 13.1583L1.60797 12.8247L1.32429 12.6184H1.67554L1.78453 12.2848M13.6409 2.08153L13.7484 2.41531H14.1003L13.8166 2.62149L13.9245 2.95527L13.6409 2.74891L13.3564 2.95527L13.4646 2.62149L13.1807 2.41531H13.532L13.6409 2.08159M13.6409 5.01283L13.7484 5.34637H14.1003L13.8166 5.55273L13.9245 5.88627L13.6409 5.6823L13.3564 5.88627L13.4646 5.55273L13.1807 5.34637H13.532L13.6409 5.01283M13.6409 7.94563L13.7484 8.28H14.1003L13.8166 8.48559L13.9245 8.8199L13.6409 8.61354L13.3564 8.8199L13.4646 8.48559L13.1807 8.28H13.532L13.6409 7.94563M13.6409 10.9434L13.7484 11.2794H14.1003L13.8166 11.4857L13.9245 11.8216L13.6409 11.613L13.3564 11.8216L13.4646 11.4857L13.1807 11.2794H13.532L13.6409 10.9434M13.6409 13.8079L13.7484 14.1423H14.1003L13.8166 14.3502L13.9245 14.6838L13.6409 14.4758L13.3564 14.6838L13.4646 14.3502L13.1807 14.1423H13.532L13.6409 13.8079M12.3525 0.749282L12.4606 1.0836H12.8127L12.529 1.29152L12.6372 1.62512L12.3527 1.41714L12.0687 1.62512L12.177 1.29152L11.8925 1.0836H12.243L12.3527 0.749222M0.706644 13.8079L0.814672 14.1423H1.16671L0.88302 14.3502L0.991227 14.6838L0.706764 14.4758L0.422838 14.6838L0.531046 14.3502L0.246582 14.1423H0.59706L0.706823 13.8079M0.948435 10.9434L1.05652 11.2794H1.40856L1.12487 11.4857L1.23308 11.8216L0.948555 11.613L0.664689 11.8216L0.772897 11.4857L0.488373 11.2794H0.838851L0.948675 10.9434M9.72271 1.00639L9.83169 1.34233H10.1837L9.89842 1.54635L10.0079 1.88229L9.72265 1.67611L9.43818 1.88229L9.54795 1.54635L9.26402 1.34233H9.6145L9.72271 1.00639Z" fill="white"/>
</g>
</g>
</g>
</svg>
