<svg width="36" height="36" viewBox="0 0 36 36" fill="none" xmlns="http://www.w3.org/2000/svg">
<g id="Frame" clip-path="url(#clip0_50_5272)">
<g id="Group">
<path id="Vector" d="M18 0C14.4399 0 10.9598 1.05568 7.99974 3.03355C5.03966 5.01141 2.73255 7.82263 1.37018 11.1117C0.00779906 14.4008 -0.348661 18.02 0.345873 21.5116C1.04041 25.0033 2.75474 28.2106 5.27209 30.7279C7.78943 33.2453 10.9967 34.9596 14.4884 35.6541C17.98 36.3487 21.5992 35.9922 24.8883 34.6298C28.1774 33.2675 30.9886 30.9604 32.9665 28.0003C34.9443 25.0402 36 21.5601 36 18C35.9941 13.2279 34.0957 8.65302 30.7214 5.27865C27.347 1.90429 22.7721 0.00595393 18 0ZM20.385 23.5575L18.7875 25.155C18.2706 25.6794 17.6539 26.0949 16.9737 26.377C16.2936 26.6591 15.5638 26.8021 14.8275 26.7975C13.7162 26.7993 12.6294 26.4714 11.7046 25.8553C10.7797 25.2392 10.0585 24.3625 9.63207 23.3363C9.20568 22.3101 9.09333 21.1804 9.30925 20.0903C9.52516 19.0002 10.0596 17.9987 10.845 17.2125L12.4425 15.615C12.544 15.5083 12.6662 15.4233 12.8016 15.3652C12.9369 15.3071 13.0827 15.2772 13.23 15.2772C13.3773 15.2772 13.5231 15.3071 13.6585 15.3652C13.7938 15.4233 13.916 15.5083 14.0175 15.615C14.1243 15.7188 14.2092 15.843 14.2672 15.9802C14.3252 16.1174 14.3551 16.2648 14.3551 16.4138C14.3551 16.5627 14.3252 16.7101 14.2672 16.8473C14.2092 16.9845 14.1243 17.1087 14.0175 17.2125L12.42 18.7875C11.7964 19.4243 11.4488 20.2812 11.4525 21.1725C11.4465 21.6145 11.5289 22.0532 11.6951 22.4628C11.8613 22.8724 12.1077 23.2446 12.42 23.5575C12.7342 23.873 13.1076 24.1234 13.5189 24.2942C13.9301 24.4651 14.371 24.553 14.8163 24.553C15.2615 24.553 15.7024 24.4651 16.1137 24.2942C16.5249 24.1234 16.8983 23.873 17.2125 23.5575L18.7875 21.9825C18.8913 21.8757 19.0155 21.7908 19.1527 21.7328C19.2899 21.6748 19.4373 21.6449 19.5863 21.6449C19.7352 21.6449 19.8826 21.6748 20.0198 21.7328C20.157 21.7908 20.2812 21.8757 20.385 21.9825C20.4918 22.084 20.5767 22.2062 20.6348 22.3415C20.6929 22.4769 20.7228 22.6227 20.7228 22.77C20.7228 22.9173 20.6929 23.0631 20.6348 23.1985C20.5767 23.3338 20.4918 23.456 20.385 23.5575ZM21.1725 16.4025L16.4025 21.1725C16.301 21.2792 16.1788 21.3642 16.0435 21.4223C15.9081 21.4804 15.7623 21.5103 15.615 21.5103C15.4677 21.5103 15.3219 21.4804 15.1866 21.4223C15.0512 21.3642 14.929 21.2792 14.8275 21.1725C14.7208 21.071 14.6358 20.9488 14.5777 20.8135C14.5196 20.6781 14.4897 20.5323 14.4897 20.385C14.4897 20.2377 14.5196 20.0919 14.5777 19.9565C14.6358 19.8212 14.7208 19.699 14.8275 19.5975L19.5975 14.8275C19.7005 14.7224 19.8234 14.6387 19.959 14.5813C20.0945 14.524 20.2401 14.4941 20.3873 14.4933C20.5345 14.4926 20.6804 14.521 20.8166 14.577C20.9527 14.633 21.0764 14.7154 21.1805 14.8195C21.2846 14.9236 21.367 15.0473 21.423 15.1834C21.479 15.3196 21.5074 15.4655 21.5067 15.6127C21.506 15.7599 21.476 15.9055 21.4187 16.041C21.3613 16.1766 21.2776 16.2995 21.1725 16.4025ZM25.155 18.7875L23.5575 20.385C23.4571 20.4931 23.3351 20.579 23.1995 20.6371C23.0638 20.6952 22.9176 20.7243 22.77 20.7225C22.6228 20.7223 22.4771 20.6923 22.3418 20.6343C22.2064 20.5763 22.0842 20.4915 21.9825 20.385C21.8757 20.2812 21.7908 20.157 21.7328 20.0198C21.6748 19.8826 21.6449 19.7352 21.6449 19.5863C21.6449 19.4373 21.6748 19.2899 21.7328 19.1527C21.7908 19.0155 21.8757 18.8913 21.9825 18.7875L23.58 17.2125C24.2036 16.5757 24.5512 15.7188 24.5475 14.8275C24.5536 14.3855 24.4711 13.9468 24.3049 13.5372C24.1387 13.1276 23.8923 12.7554 23.58 12.4425C23.2658 12.127 22.8924 11.8766 22.4812 11.7058C22.07 11.5349 21.629 11.447 21.1838 11.447C20.7385 11.447 20.2976 11.5349 19.8864 11.7058C19.4751 11.8766 19.1017 12.127 18.7875 12.4425L17.2125 14.0175C17.1087 14.1243 16.9845 14.2092 16.8473 14.2672C16.7101 14.3252 16.5627 14.3551 16.4138 14.3551C16.2648 14.3551 16.1174 14.3252 15.9802 14.2672C15.843 14.2092 15.7188 14.1243 15.615 14.0175C15.5083 13.916 15.4233 13.7938 15.3652 13.6585C15.3071 13.5231 15.2772 13.3773 15.2772 13.23C15.2772 13.0827 15.3071 12.9369 15.3652 12.8015C15.4233 12.6662 15.5083 12.544 15.615 12.4425L17.2125 10.845C18.2658 9.79176 19.6943 9.20006 21.1838 9.20006C22.6733 9.20006 24.1018 9.79176 25.155 10.845C26.2083 11.8982 26.8 13.3267 26.8 14.8163C26.8 16.3058 26.2083 17.7343 25.155 18.7875Z" fill="#2196F3"/>
</g>
</g>
<defs>
<clipPath id="clip0_50_5272">
<rect width="36" height="36" fill="white"/>
</clipPath>
</defs>
</svg>
