<svg width="18" height="20" viewBox="0 0 18 20" fill="none" xmlns="http://www.w3.org/2000/svg">
<g id="Calender 1">
<path id="Vector" d="M2.63932 18.2914L3.08016 17.6846L2.63932 18.2914ZM1.62534 17.2774L2.2321 16.8365L1.62534 17.2774ZM16.3747 17.2774L15.7679 16.8365L16.3747 17.2774ZM15.3607 18.2914L15.8015 18.8981L15.3607 18.2914ZM15.3607 3.54205L15.8015 2.93528L15.3607 3.54205ZM16.3747 4.55602L15.7679 4.99686L16.3747 4.55602ZM2.63932 3.54205L3.08016 4.14881L2.63932 3.54205ZM1.62534 4.55602L2.2321 4.99686L1.62534 4.55602ZM15.6163 13.7231L15.499 12.9824L15.6163 13.7231ZM11.8064 17.533L11.0657 17.4157L11.8064 17.533ZM6.25 11.0834C5.83579 11.0834 5.5 11.4192 5.5 11.8334C5.5 12.2476 5.83579 12.5834 6.25 12.5834V11.0834ZM11.75 12.5834C12.1642 12.5834 12.5 12.2476 12.5 11.8334C12.5 11.4192 12.1642 11.0834 11.75 11.0834V12.5834ZM11 3.58337C11 3.99759 11.3358 4.33337 11.75 4.33337C12.1642 4.33337 12.5 3.99759 12.5 3.58337H11ZM12.5 0.833374C12.5 0.41916 12.1642 0.083374 11.75 0.083374C11.3358 0.083374 11 0.41916 11 0.833374H12.5ZM5.5 3.58337C5.5 3.99759 5.83579 4.33337 6.25 4.33337C6.66421 4.33337 7 3.99759 7 3.58337H5.5ZM7 0.833374C7 0.41916 6.66421 0.083374 6.25 0.083374C5.83579 0.083374 5.5 0.41916 5.5 0.833374H7ZM17.2235 13.6667L17.973 13.6924L17.2235 13.6667ZM0.776518 8.16671L0.0269575 8.14103L0.776518 8.16671ZM17.2235 8.16671L17.973 8.14103L17.2235 8.16671ZM9 18.4167C7.26467 18.4167 6.02341 18.4157 5.06327 18.3117C4.11717 18.2092 3.5334 18.0139 3.08016 17.6846L2.19848 18.8981C2.95004 19.4442 3.82798 19.6866 4.9017 19.8029C5.96139 19.9177 7.29808 19.9167 9 19.9167V18.4167ZM0 10.9167C0 12.6186 -0.00102943 13.9553 0.113781 15.015C0.230112 16.0887 0.472536 16.9667 1.01858 17.7182L2.2321 16.8365C1.9028 16.3833 1.70756 15.7995 1.60505 14.8534C1.50103 13.8933 1.5 12.652 1.5 10.9167H0ZM3.08016 17.6846C2.75473 17.4482 2.46854 17.162 2.2321 16.8365L1.01858 17.7182C1.34753 18.171 1.74571 18.5692 2.19848 18.8981L3.08016 17.6846ZM15.7679 16.8365C15.5315 17.162 15.2453 17.4482 14.9198 17.6846L15.8015 18.8981C16.2543 18.5692 16.6525 18.171 16.9814 17.7182L15.7679 16.8365ZM14.9198 4.14881C15.2453 4.38525 15.5315 4.67143 15.7679 4.99686L16.9814 4.11519C16.6525 3.66241 16.2543 3.26424 15.8015 2.93528L14.9198 4.14881ZM2.19848 2.93528C1.74571 3.26424 1.34753 3.66241 1.01858 4.11519L2.2321 4.99686C2.46854 4.67143 2.75473 4.38525 3.08016 4.14881L2.19848 2.93528ZM15.499 12.9824C13.2169 13.3438 11.4271 15.1336 11.0657 17.4157L12.5472 17.6504C12.807 16.0101 14.0934 14.7237 15.7337 14.4639L15.499 12.9824ZM6.25 12.5834H11.75V11.0834H6.25V12.5834ZM17.2235 12.9167C16.417 12.9167 15.9243 12.915 15.499 12.9824L15.7337 14.4639C16.0135 14.4196 16.3621 14.4167 17.2235 14.4167L17.2235 12.9167ZM16.5 10.9167C16.5 11.9924 16.4999 12.8826 16.4739 13.641L17.973 13.6924C18.0001 12.9028 18 11.9841 18 10.9167H16.5ZM16.4739 13.641C16.4157 15.3406 16.2257 16.2064 15.7679 16.8365L16.9814 17.7182C17.7285 16.69 17.9142 15.4105 17.973 13.6924L16.4739 13.641ZM12.5 19.1402C12.5 18.2788 12.5029 17.9302 12.5472 17.6504L11.0657 17.4157C10.9983 17.841 11 18.3337 11 19.1402L12.5 19.1402ZM9 19.9167C10.0674 19.9167 10.9861 19.9168 11.7757 19.8897L11.7243 18.3906C10.9659 18.4166 10.0757 18.4167 9 18.4167V19.9167ZM11.7757 19.8897C13.4938 19.8309 14.7732 19.6452 15.8015 18.8981L14.9198 17.6846C14.2897 18.1424 13.4239 18.3324 11.7243 18.3906L11.7757 19.8897ZM1.5 10.9167C1.5 9.84104 1.50009 8.95079 1.52608 8.19239L0.0269575 8.14103C-9.39369e-05 8.93059 0 9.84934 0 10.9167H1.5ZM1.52608 8.19239C1.58431 6.49281 1.77426 5.62703 2.2321 4.99686L1.01858 4.11519C0.271489 5.14346 0.0858217 6.42293 0.0269575 8.14103L1.52608 8.19239ZM0.776518 8.91671H17.2235V7.41671H0.776518V8.91671ZM18 10.9167C18 9.84934 18.0001 8.93059 17.973 8.14103L16.4739 8.19239C16.4999 8.95079 16.5 9.84104 16.5 10.9167H18ZM17.973 8.14103C17.9142 6.42293 17.7285 5.14346 16.9814 4.11519L15.7679 4.99686C16.2257 5.62703 16.4157 6.49281 16.4739 8.19239L17.973 8.14103ZM12.5 3.58337V2.69323H11V3.58337H12.5ZM12.5 2.69323V0.833374H11V2.69323H12.5ZM9 3.41671C10.0757 3.41671 10.9659 3.4168 11.7243 3.44279L11.7757 1.94366C10.9861 1.91661 10.0674 1.91671 9 1.91671V3.41671ZM11.7243 3.44279C13.4239 3.50102 14.2897 3.69097 14.9198 4.14881L15.8015 2.93528C14.7732 2.1882 13.4938 2.00253 11.7757 1.94366L11.7243 3.44279ZM7 3.58337V2.69323H5.5V3.58337H7ZM7 2.69323V0.833374H5.5V2.69323H7ZM9 1.91671C7.93264 1.91671 7.01388 1.91661 6.22432 1.94366L6.27568 3.44279C7.03409 3.4168 7.92433 3.41671 9 3.41671V1.91671ZM6.22432 1.94366C4.50622 2.00253 3.22676 2.1882 2.19848 2.93528L3.08016 4.14881C3.71032 3.69097 4.5761 3.50102 6.27568 3.44279L6.22432 1.94366Z" fill="#A1A1A1"/>
</g>
</svg>
