<svg width="20" height="18" viewBox="0 0 20 18" fill="none" xmlns="http://www.w3.org/2000/svg">
<path id="Vector" d="M1.54724 3.35399C1 4.49846 1 6.13249 1 9C1 12.3331 1 13.9996 1.85942 15.1679C2.13698 15.5452 2.47294 15.8771 2.85497 16.1512C4.03786 17 5.72524 17 9.1 17H10.9C14.2748 17 15.9621 17 17.145 16.1512C17.5271 15.8771 17.863 15.5452 18.1406 15.1679C19 13.9996 19 12.3331 19 9C19 6.11222 19 4.47542 18.4411 3.3298M1.54724 3.35399C1.6361 3.16817 1.73937 2.99526 1.85942 2.83207C2.13698 2.45476 2.47294 2.12294 2.85497 1.84881C4.03786 1 5.72524 1 9.1 1H10.9C14.2748 1 15.9621 1 17.145 1.84881C17.5271 2.12294 17.863 2.45476 18.1406 2.83207C18.2554 2.98816 18.3549 3.15314 18.4411 3.3298M1.54724 3.35399L1.9 3.66667L3.63604 5.38127C6.63604 8.34424 8.13604 9.82572 10 9.82572C11.864 9.82572 13.364 8.34424 16.364 5.38128L18.1 3.66667L18.4411 3.3298" stroke="#9D9D9D" stroke-width="1.5"/>
</svg>
