<svg width="20" height="20" viewBox="0 0 20 20" fill="none" xmlns="http://www.w3.org/2000/svg">
<g id="Group 1171274988">
<path id="Rectangle" d="M0.75 4.57143C0.75 3.82821 0.750445 3.31015 0.779382 2.90513C0.807806 2.50729 0.860921 2.2763 0.937735 2.10024C1.16473 1.57997 1.57997 1.16473 2.10024 0.937735C2.2763 0.860921 2.50729 0.807806 2.90513 0.779382C3.31015 0.750445 3.82821 0.75 4.57143 0.75C5.31465 0.75 5.83271 0.750445 6.23773 0.779382C6.63556 0.807806 6.86655 0.860921 7.04261 0.937734C7.56288 1.16473 7.97813 1.57997 8.20512 2.10024C8.28194 2.2763 8.33505 2.50729 8.36347 2.90513C8.39241 3.31015 8.39286 3.82821 8.39286 4.57143C8.39286 5.31465 8.39241 5.83271 8.36347 6.23773C8.33505 6.63556 8.28194 6.86655 8.20512 7.04261C7.97813 7.56288 7.56288 7.97813 7.04261 8.20512C6.86655 8.28194 6.63556 8.33505 6.23773 8.36347C5.83271 8.39241 5.31465 8.39286 4.57143 8.39286C3.82821 8.39286 3.31015 8.39241 2.90513 8.36347C2.50729 8.33505 2.2763 8.28194 2.10024 8.20512C1.57997 7.97813 1.16473 7.56288 0.937735 7.04261C0.860921 6.86655 0.807806 6.63556 0.779382 6.23773C0.750445 5.83271 0.75 5.31465 0.75 4.57143Z" stroke="#A0A0A0" stroke-width="1.5"/>
<path id="Rectangle_2" d="M0.75 15.4286C0.75 14.6854 0.750445 14.1673 0.779382 13.7623C0.807806 13.3645 0.860921 13.1335 0.937735 12.9574C1.16473 12.4372 1.57997 12.0219 2.10024 11.7949C2.2763 11.7181 2.50729 11.665 2.90513 11.6366C3.31015 11.6076 3.82821 11.6072 4.57143 11.6072C5.31465 11.6072 5.83271 11.6076 6.23773 11.6366C6.63556 11.665 6.86655 11.7181 7.04261 11.7949C7.56288 12.0219 7.97813 12.4372 8.20512 12.9574C8.28194 13.1335 8.33505 13.3645 8.36347 13.7623C8.39241 14.1673 8.39286 14.6854 8.39286 15.4286C8.39286 16.1718 8.39241 16.6899 8.36347 17.0949C8.33505 17.4927 8.28194 17.7237 8.20512 17.8998C7.97813 18.4201 7.56288 18.8353 7.04261 19.0623C6.86655 19.1391 6.63556 19.1922 6.23773 19.2207C5.83271 19.2496 5.31465 19.25 4.57143 19.25C3.82821 19.25 3.31015 19.2496 2.90513 19.2207C2.50729 19.1922 2.2763 19.1391 2.10024 19.0623C1.57997 18.8353 1.16473 18.4201 0.937735 17.8998C0.860921 17.7237 0.807806 17.4927 0.779382 17.0949C0.750445 16.6899 0.75 16.1718 0.75 15.4286Z" stroke="#A0A0A0" stroke-width="1.5"/>
<path id="Rectangle_3" d="M11.6074 4.57143C11.6074 3.82821 11.6079 3.31015 11.6368 2.90513C11.6652 2.50729 11.7183 2.2763 11.7952 2.10024C12.0221 1.57997 12.4374 1.16473 12.9577 0.937735C13.1337 0.860921 13.3647 0.807806 13.7625 0.779382C14.1676 0.750445 14.6856 0.75 15.4289 0.75C16.1721 0.75 16.6901 0.750445 17.0952 0.779382C17.493 0.807806 17.724 0.860921 17.9 0.937734C18.4203 1.16473 18.8356 1.57997 19.0625 2.10024C19.1394 2.2763 19.1925 2.50729 19.2209 2.90513C19.2498 3.31015 19.2503 3.82821 19.2503 4.57143C19.2503 5.31465 19.2498 5.83271 19.2209 6.23773C19.1925 6.63556 19.1394 6.86655 19.0625 7.04261C18.8356 7.56288 18.4203 7.97813 17.9 8.20512C17.724 8.28194 17.493 8.33505 17.0952 8.36347C16.6901 8.39241 16.1721 8.39286 15.4289 8.39286C14.6856 8.39286 14.1676 8.39241 13.7625 8.36347C13.3647 8.33505 13.1337 8.28194 12.9577 8.20512C12.4374 7.97813 12.0221 7.56288 11.7952 7.04261C11.7183 6.86655 11.6652 6.63556 11.6368 6.23773C11.6079 5.83271 11.6074 5.31465 11.6074 4.57143Z" stroke="#A0A0A0" stroke-width="1.5"/>
<path id="Rectangle_4" d="M11.6074 15.4286C11.6074 14.6854 11.6079 14.1673 11.6368 13.7623C11.6652 13.3645 11.7183 13.1335 11.7952 12.9574C12.0221 12.4372 12.4374 12.0219 12.9577 11.7949C13.1337 11.7181 13.3647 11.665 13.7625 11.6366C14.1676 11.6076 14.6856 11.6072 15.4289 11.6072C16.1721 11.6072 16.6901 11.6076 17.0952 11.6366C17.493 11.665 17.724 11.7181 17.9 11.7949C18.4203 12.0219 18.8356 12.4372 19.0625 12.9574C19.1394 13.1335 19.1925 13.3645 19.2209 13.7623C19.2498 14.1673 19.2503 14.6854 19.2503 15.4286C19.2503 16.1718 19.2498 16.6899 19.2209 17.0949C19.1925 17.4927 19.1394 17.7237 19.0625 17.8998C18.8356 18.4201 18.4203 18.8353 17.9 19.0623C17.724 19.1391 17.493 19.1922 17.0952 19.2207C16.6901 19.2496 16.1721 19.25 15.4289 19.25C14.6856 19.25 14.1676 19.2496 13.7625 19.2207C13.3647 19.1922 13.1337 19.1391 12.9577 19.0623C12.4374 18.8353 12.0221 18.4201 11.7952 17.8998C11.7183 17.7237 11.6652 17.4927 11.6368 17.0949C11.6079 16.6899 11.6074 16.1718 11.6074 15.4286Z" stroke="#A0A0A0" stroke-width="1.5"/>
</g>
</svg>
