<svg width="24" height="24" viewBox="0 0 24 24" fill="none" xmlns="http://www.w3.org/2000/svg">
<g id="Icon / 02">
<path id="Vector" d="M16.8 12.2857H7.2C6.72 12.2857 6.4 11.9714 6.4 11.5C6.4 11.0286 6.72 10.7143 7.2 10.7143H16.8C17.28 10.7143 17.6 11.0286 17.6 11.5C17.6 11.9714 17.28 12.2857 16.8 12.2857ZM14.4 17H9.6C9.12 17 8.8 16.6857 8.8 16.2143C8.8 15.7429 9.12 15.4286 9.6 15.4286H14.4C14.88 15.4286 15.2 15.7429 15.2 16.2143C15.2 16.6857 14.88 17 14.4 17ZM19.2 7.57143H4.8C4.32 7.57143 4 7.25714 4 6.78571C4 6.31429 4.32 6 4.8 6H19.2C19.68 6 20 6.31429 20 6.78571C20 7.25714 19.68 7.57143 19.2 7.57143Z" fill="#A3A3A3"/>
</g>
</svg>
