<svg width="470" height="75" viewBox="0 0 470 75" fill="none" xmlns="http://www.w3.org/2000/svg">
<path d="M41.85 27.3L33.75 55H26.2L21.15 35.65L16.1 55H8.5L0.35 27.3H7.45L12.35 48.4L17.65 27.3H25.05L30.25 48.35L35.15 27.3H41.85ZM49.1875 24C47.9542 24 46.9208 23.6167 46.0875 22.85C45.2875 22.05 44.8875 21.0667 44.8875 19.9C44.8875 18.7333 45.2875 17.7667 46.0875 17C46.9208 16.2 47.9542 15.8 49.1875 15.8C50.4208 15.8 51.4375 16.2 52.2375 17C53.0708 17.7667 53.4875 18.7333 53.4875 19.9C53.4875 21.0667 53.0708 22.05 52.2375 22.85C51.4375 23.6167 50.4208 24 49.1875 24ZM52.6375 27.3V55H45.6375V27.3H52.6375ZM67.7035 33.05V46.45C67.7035 47.3833 67.9202 48.0667 68.3535 48.5C68.8202 48.9 69.5868 49.1 70.6535 49.1H73.9035V55H69.5035C63.6035 55 60.6535 52.1333 60.6535 46.4V33.05H57.3535V27.3H60.6535V20.45H67.7035V27.3H73.9035V33.05H67.7035ZM94.5383 26.9C96.6383 26.9 98.5049 27.3667 100.138 28.3C101.772 29.2 103.038 30.55 103.938 32.35C104.872 34.1167 105.338 36.25 105.338 38.75V55H98.3383V39.7C98.3383 37.5 97.7883 35.8167 96.6883 34.65C95.5883 33.45 94.0883 32.85 92.1883 32.85C90.2549 32.85 88.7216 33.45 87.5883 34.65C86.4883 35.8167 85.9383 37.5 85.9383 39.7V55H78.9383V18H85.9383V30.75C86.8383 29.55 88.0383 28.6167 89.5383 27.95C91.0383 27.25 92.7049 26.9 94.5383 26.9ZM124.295 55.45C121.628 55.45 119.228 54.8667 117.095 53.7C114.962 52.5 113.278 50.8167 112.045 48.65C110.845 46.4833 110.245 43.9833 110.245 41.15C110.245 38.3167 110.862 35.8167 112.095 33.65C113.362 31.4833 115.078 29.8167 117.245 28.65C119.412 27.45 121.828 26.85 124.495 26.85C127.162 26.85 129.578 27.45 131.745 28.65C133.912 29.8167 135.612 31.4833 136.845 33.65C138.112 35.8167 138.745 38.3167 138.745 41.15C138.745 43.9833 138.095 46.4833 136.795 48.65C135.528 50.8167 133.795 52.5 131.595 53.7C129.428 54.8667 126.995 55.45 124.295 55.45ZM124.295 49.35C125.562 49.35 126.745 49.05 127.845 48.45C128.978 47.8167 129.878 46.8833 130.545 45.65C131.212 44.4167 131.545 42.9167 131.545 41.15C131.545 38.5167 130.845 36.5 129.445 35.1C128.078 33.6667 126.395 32.95 124.395 32.95C122.395 32.95 120.712 33.6667 119.345 35.1C118.012 36.5 117.345 38.5167 117.345 41.15C117.345 43.7833 117.995 45.8167 119.295 47.25C120.628 48.65 122.295 49.35 124.295 49.35ZM170.03 27.3V55H162.98V51.5C162.08 52.7 160.896 53.65 159.43 54.35C157.996 55.0167 156.43 55.35 154.73 55.35C152.563 55.35 150.646 54.9 148.98 54C147.313 53.0667 145.996 51.7167 145.03 49.95C144.096 48.15 143.63 46.0167 143.63 43.55V27.3H150.63V42.55C150.63 44.75 151.18 46.45 152.28 47.65C153.38 48.8167 154.88 49.4 156.78 49.4C158.713 49.4 160.23 48.8167 161.33 47.65C162.43 46.45 162.98 44.75 162.98 42.55V27.3H170.03ZM185.086 33.05V46.45C185.086 47.3833 185.303 48.0667 185.736 48.5C186.203 48.9 186.97 49.1 188.036 49.1H191.286V55H186.886C180.986 55 178.036 52.1333 178.036 46.4V33.05H174.736V27.3H178.036V20.45H185.086V27.3H191.286V33.05H185.086ZM220.285 55.35C217.852 55.35 215.652 54.9333 213.685 54.1C211.752 53.2667 210.218 52.0667 209.085 50.5C207.952 48.9333 207.368 47.0833 207.335 44.95H214.835C214.935 46.3833 215.435 47.5167 216.335 48.35C217.268 49.1833 218.535 49.6 220.135 49.6C221.768 49.6 223.052 49.2167 223.985 48.45C224.918 47.65 225.385 46.6167 225.385 45.35C225.385 44.3167 225.068 43.4667 224.435 42.8C223.802 42.1333 223.002 41.6167 222.035 41.25C221.102 40.85 219.802 40.4167 218.135 39.95C215.868 39.2833 214.018 38.6333 212.585 38C211.185 37.3333 209.968 36.35 208.935 35.05C207.935 33.7167 207.435 31.95 207.435 29.75C207.435 27.6833 207.952 25.8833 208.985 24.35C210.018 22.8167 211.468 21.65 213.335 20.85C215.202 20.0167 217.335 19.6 219.735 19.6C223.335 19.6 226.252 20.4833 228.485 22.25C230.752 23.9833 232.002 26.4167 232.235 29.55H224.535C224.468 28.35 223.952 27.3667 222.985 26.6C222.052 25.8 220.802 25.4 219.235 25.4C217.868 25.4 216.768 25.75 215.935 26.45C215.135 27.15 214.735 28.1667 214.735 29.5C214.735 30.4333 215.035 31.2167 215.635 31.85C216.268 32.45 217.035 32.95 217.935 33.35C218.868 33.7167 220.168 34.15 221.835 34.65C224.102 35.3167 225.952 35.9833 227.385 36.65C228.818 37.3167 230.052 38.3167 231.085 39.65C232.118 40.9833 232.635 42.7333 232.635 44.9C232.635 46.7667 232.152 48.5 231.185 50.1C230.218 51.7 228.802 52.9833 226.935 53.95C225.068 54.8833 222.852 55.35 220.285 55.35ZM264.854 27.3V55H257.804V51.5C256.904 52.7 255.721 53.65 254.254 54.35C252.821 55.0167 251.254 55.35 249.554 55.35C247.387 55.35 245.471 54.9 243.804 54C242.137 53.0667 240.821 51.7167 239.854 49.95C238.921 48.15 238.454 46.0167 238.454 43.55V27.3H245.454V42.55C245.454 44.75 246.004 46.45 247.104 47.65C248.204 48.8167 249.704 49.4 251.604 49.4C253.537 49.4 255.054 48.8167 256.154 47.65C257.254 46.45 257.804 44.75 257.804 42.55V27.3H264.854ZM278.761 31.3C279.661 30.0333 280.894 28.9833 282.461 28.15C284.061 27.2833 285.877 26.85 287.911 26.85C290.277 26.85 292.411 27.4333 294.311 28.6C296.244 29.7667 297.761 31.4333 298.861 33.6C299.994 35.7333 300.561 38.2167 300.561 41.05C300.561 43.8833 299.994 46.4 298.861 48.6C297.761 50.7667 296.244 52.45 294.311 53.65C292.411 54.85 290.277 55.45 287.911 55.45C285.877 55.45 284.077 55.0333 282.511 54.2C280.977 53.3667 279.727 52.3167 278.761 51.05V68.2H271.761V27.3H278.761V31.3ZM293.411 41.05C293.411 39.3833 293.061 37.95 292.361 36.75C291.694 35.5167 290.794 34.5833 289.661 33.95C288.561 33.3167 287.361 33 286.061 33C284.794 33 283.594 33.3333 282.461 34C281.361 34.6333 280.461 35.5667 279.761 36.8C279.094 38.0333 278.761 39.4833 278.761 41.15C278.761 42.8167 279.094 44.2667 279.761 45.5C280.461 46.7333 281.361 47.6833 282.461 48.35C283.594 48.9833 284.794 49.3 286.061 49.3C287.361 49.3 288.561 48.9667 289.661 48.3C290.794 47.6333 291.694 46.6833 292.361 45.45C293.061 44.2167 293.411 42.75 293.411 41.05ZM331.397 40.55C331.397 41.55 331.331 42.45 331.197 43.25H310.947C311.114 45.25 311.814 46.8167 313.047 47.95C314.281 49.0833 315.797 49.65 317.597 49.65C320.197 49.65 322.047 48.5333 323.147 46.3H330.697C329.897 48.9667 328.364 51.1667 326.097 52.9C323.831 54.6 321.047 55.45 317.747 55.45C315.081 55.45 312.681 54.8667 310.547 53.7C308.447 52.5 306.797 50.8167 305.597 48.65C304.431 46.4833 303.847 43.9833 303.847 41.15C303.847 38.2833 304.431 35.7667 305.597 33.6C306.764 31.4333 308.397 29.7667 310.497 28.6C312.597 27.4333 315.014 26.85 317.747 26.85C320.381 26.85 322.731 27.4167 324.797 28.55C326.897 29.6833 328.514 31.3 329.647 33.4C330.814 35.4667 331.397 37.85 331.397 40.55ZM324.147 38.55C324.114 36.75 323.464 35.3167 322.197 34.25C320.931 33.15 319.381 32.6 317.547 32.6C315.814 32.6 314.347 33.1333 313.147 34.2C311.981 35.2333 311.264 36.6833 310.997 38.55H324.147ZM343.507 31.6C344.407 30.1333 345.573 28.9833 347.007 28.15C348.473 27.3167 350.14 26.9 352.007 26.9V34.25H350.157C347.957 34.25 346.29 34.7667 345.157 35.8C344.057 36.8333 343.507 38.6333 343.507 41.2V55H336.507V27.3H343.507V31.6ZM378.271 20.1V25.75H363.721V34.7H374.871V40.25H363.721V55H356.721V20.1H378.271ZM390.235 18V55H383.235V18H390.235ZM422.901 40.55C422.901 41.55 422.835 42.45 422.701 43.25H402.451C402.618 45.25 403.318 46.8167 404.551 47.95C405.785 49.0833 407.301 49.65 409.101 49.65C411.701 49.65 413.551 48.5333 414.651 46.3H422.201C421.401 48.9667 419.868 51.1667 417.601 52.9C415.335 54.6 412.551 55.45 409.251 55.45C406.585 55.45 404.185 54.8667 402.051 53.7C399.951 52.5 398.301 50.8167 397.101 48.65C395.935 46.4833 395.351 43.9833 395.351 41.15C395.351 38.2833 395.935 35.7667 397.101 33.6C398.268 31.4333 399.901 29.7667 402.001 28.6C404.101 27.4333 406.518 26.85 409.251 26.85C411.885 26.85 414.235 27.4167 416.301 28.55C418.401 29.6833 420.018 31.3 421.151 33.4C422.318 35.4667 422.901 37.85 422.901 40.55ZM415.651 38.55C415.618 36.75 414.968 35.3167 413.701 34.25C412.435 33.15 410.885 32.6 409.051 32.6C407.318 32.6 405.851 33.1333 404.651 34.2C403.485 35.2333 402.768 36.6833 402.501 38.55H415.651ZM443.311 55L437.611 46.4L432.561 55H425.061L434.111 41.1L424.961 27.3H432.861L438.511 35.85L443.611 27.3H451.111L442.011 41.1L451.211 55H443.311ZM464.062 19.5L463.263 43.65H457.363L456.513 19.5H464.062ZM460.463 55.35C459.196 55.35 458.146 54.9667 457.313 54.2C456.513 53.4 456.113 52.4167 456.113 51.25C456.113 50.0833 456.513 49.1167 457.313 48.35C458.146 47.55 459.196 47.15 460.463 47.15C461.696 47.15 462.713 47.55 463.513 48.35C464.313 49.1167 464.713 50.0833 464.713 51.25C464.713 52.4167 464.313 53.4 463.513 54.2C462.713 54.9667 461.696 55.35 460.463 55.35Z" fill="white"/>
<path d="M445.5 36H438.5L443.5 27H451.5L445.5 36Z" fill="#F65B0B"/>
<path d="M442.5 42L438.5 36H445.5L442.5 42Z" fill="#200C01"/>
</svg>
