<svg width="676" height="54" viewBox="0 0 676 54" fill="none" xmlns="http://www.w3.org/2000/svg">
<path d="M12.65 5.1C16.3167 5.1 19.5333 5.81667 22.3 7.25C25.1 8.68333 27.25 10.7333 28.75 13.4C30.2833 16.0333 31.05 19.1 31.05 22.6C31.05 26.1 30.2833 29.1667 28.75 31.8C27.25 34.4 25.1 36.4167 22.3 37.85C19.5333 39.2833 16.3167 40 12.65 40H0.45V5.1H12.65ZM12.4 34.05C16.0667 34.05 18.9 33.05 20.9 31.05C22.9 29.05 23.9 26.2333 23.9 22.6C23.9 18.9667 22.9 16.1333 20.9 14.1C18.9 12.0333 16.0667 11 12.4 11H7.45V34.05H12.4ZM48.5898 40.45C45.9232 40.45 43.5232 39.8667 41.3898 38.7C39.2565 37.5 37.5732 35.8167 36.3398 33.65C35.1398 31.4833 34.5398 28.9833 34.5398 26.15C34.5398 23.3167 35.1565 20.8167 36.3898 18.65C37.6565 16.4833 39.3732 14.8167 41.5398 13.65C43.7065 12.45 46.1232 11.85 48.7898 11.85C51.4565 11.85 53.8732 12.45 56.0398 13.65C58.2065 14.8167 59.9065 16.4833 61.1398 18.65C62.4065 20.8167 63.0398 23.3167 63.0398 26.15C63.0398 28.9833 62.3898 31.4833 61.0898 33.65C59.8232 35.8167 58.0898 37.5 55.8898 38.7C53.7232 39.8667 51.2898 40.45 48.5898 40.45ZM48.5898 34.35C49.8565 34.35 51.0398 34.05 52.1398 33.45C53.2732 32.8167 54.1732 31.8833 54.8398 30.65C55.5065 29.4167 55.8398 27.9167 55.8398 26.15C55.8398 23.5167 55.1398 21.5 53.7398 20.1C52.3732 18.6667 50.6898 17.95 48.6898 17.95C46.6898 17.95 45.0065 18.6667 43.6398 20.1C42.3065 21.5 41.6398 23.5167 41.6398 26.15C41.6398 28.7833 42.2898 30.8167 43.5898 32.25C44.9232 33.65 46.5898 34.35 48.5898 34.35ZM83.5246 11.9C86.8246 11.9 89.4913 12.95 91.5246 15.05C93.5579 17.1167 94.5746 20.0167 94.5746 23.75V40H87.5746V24.7C87.5746 22.5 87.0246 20.8167 85.9246 19.65C84.8246 18.45 83.3246 17.85 81.4246 17.85C79.4913 17.85 77.9579 18.45 76.8246 19.65C75.7246 20.8167 75.1746 22.5 75.1746 24.7V40H68.1746V12.3H75.1746V15.75C76.1079 14.55 77.2913 13.6167 78.7246 12.95C80.1913 12.25 81.7913 11.9 83.5246 11.9ZM105.631 0.0999981L105.031 10.7H100.281L99.6313 0.0999981H105.631ZM119.147 18.05V31.45C119.147 32.3833 119.364 33.0667 119.797 33.5C120.264 33.9 121.03 34.1 122.097 34.1H125.347V40H120.947C115.047 40 112.097 37.1333 112.097 31.4V18.05H108.797V12.3H112.097V5.45H119.147V12.3H125.347V18.05H119.147ZM180.696 12.3L172.596 40H165.046L159.996 20.65L154.946 40H147.346L139.196 12.3H146.296L151.196 33.4L156.496 12.3H163.896L169.096 33.35L173.996 12.3H180.696ZM182.683 26.05C182.683 23.25 183.233 20.7667 184.333 18.6C185.467 16.4333 186.983 14.7667 188.883 13.6C190.817 12.4333 192.967 11.85 195.333 11.85C197.4 11.85 199.2 12.2667 200.733 13.1C202.3 13.9333 203.55 14.9833 204.483 16.25V12.3H211.533V40H204.483V35.95C203.583 37.25 202.333 38.3333 200.733 39.2C199.167 40.0333 197.35 40.45 195.283 40.45C192.95 40.45 190.817 39.85 188.883 38.65C186.983 37.45 185.467 35.7667 184.333 33.6C183.233 31.4 182.683 28.8833 182.683 26.05ZM204.483 26.15C204.483 24.45 204.15 23 203.483 21.8C202.817 20.5667 201.917 19.6333 200.783 19C199.65 18.3333 198.433 18 197.133 18C195.833 18 194.633 18.3167 193.533 18.95C192.433 19.5833 191.533 20.5167 190.833 21.75C190.167 22.95 189.833 24.3833 189.833 26.05C189.833 27.7167 190.167 29.1833 190.833 30.45C191.533 31.6833 192.433 32.6333 193.533 33.3C194.667 33.9667 195.867 34.3 197.133 34.3C198.433 34.3 199.65 33.9833 200.783 33.35C201.917 32.6833 202.817 31.75 203.483 30.55C204.15 29.3167 204.483 27.85 204.483 26.15ZM228.97 40.45C226.703 40.45 224.67 40.05 222.87 39.25C221.07 38.4167 219.637 37.3 218.57 35.9C217.537 34.5 216.97 32.95 216.87 31.25H223.92C224.053 32.3167 224.57 33.2 225.47 33.9C226.403 34.6 227.553 34.95 228.92 34.95C230.253 34.95 231.287 34.6833 232.02 34.15C232.787 33.6167 233.17 32.9333 233.17 32.1C233.17 31.2 232.703 30.5333 231.77 30.1C230.87 29.6333 229.42 29.1333 227.42 28.6C225.353 28.1 223.653 27.5833 222.32 27.05C221.02 26.5167 219.887 25.7 218.92 24.6C217.987 23.5 217.52 22.0167 217.52 20.15C217.52 18.6167 217.953 17.2167 218.82 15.95C219.72 14.6833 220.987 13.6833 222.62 12.95C224.287 12.2167 226.237 11.85 228.47 11.85C231.77 11.85 234.403 12.6833 236.37 14.35C238.337 15.9833 239.42 18.2 239.62 21H232.92C232.82 19.9 232.353 19.0333 231.52 18.4C230.72 17.7333 229.637 17.4 228.27 17.4C227.003 17.4 226.02 17.6333 225.32 18.1C224.653 18.5667 224.32 19.2167 224.32 20.05C224.32 20.9833 224.787 21.7 225.72 22.2C226.653 22.6667 228.103 23.15 230.07 23.65C232.07 24.15 233.72 24.6667 235.02 25.2C236.32 25.7333 237.437 26.5667 238.37 27.7C239.337 28.8 239.837 30.2667 239.87 32.1C239.87 33.7 239.42 35.1333 238.52 36.4C237.653 37.6667 236.387 38.6667 234.72 39.4C233.087 40.1 231.17 40.45 228.97 40.45ZM253.766 18.05V31.45C253.766 32.3833 253.983 33.0667 254.416 33.5C254.883 33.9 255.649 34.1 256.716 34.1H259.966V40H255.566C249.666 40 246.716 37.1333 246.716 31.4V18.05H243.416V12.3H246.716V5.45H253.766V12.3H259.966V18.05H253.766ZM290.751 25.55C290.751 26.55 290.684 27.45 290.551 28.25H270.301C270.467 30.25 271.167 31.8167 272.401 32.95C273.634 34.0833 275.151 34.65 276.951 34.65C279.551 34.65 281.401 33.5333 282.501 31.3H290.051C289.251 33.9667 287.717 36.1667 285.451 37.9C283.184 39.6 280.401 40.45 277.101 40.45C274.434 40.45 272.034 39.8667 269.901 38.7C267.801 37.5 266.151 35.8167 264.951 33.65C263.784 31.4833 263.201 28.9833 263.201 26.15C263.201 23.2833 263.784 20.7667 264.951 18.6C266.117 16.4333 267.751 14.7667 269.851 13.6C271.951 12.4333 274.367 11.85 277.101 11.85C279.734 11.85 282.084 12.4167 284.151 13.55C286.251 14.6833 287.867 16.3 289.001 18.4C290.167 20.4667 290.751 22.85 290.751 25.55ZM283.501 23.55C283.467 21.75 282.817 20.3167 281.551 19.25C280.284 18.15 278.734 17.6 276.901 17.6C275.167 17.6 273.701 18.1333 272.501 19.2C271.334 20.2333 270.617 21.6833 270.351 23.55H283.501ZM305.974 26.05C305.974 23.25 306.524 20.7667 307.624 18.6C308.758 16.4333 310.274 14.7667 312.174 13.6C314.108 12.4333 316.258 11.85 318.624 11.85C320.691 11.85 322.491 12.2667 324.024 13.1C325.591 13.9333 326.841 14.9833 327.774 16.25V12.3H334.824V40H327.774V35.95C326.874 37.25 325.624 38.3333 324.024 39.2C322.458 40.0333 320.641 40.45 318.574 40.45C316.241 40.45 314.108 39.85 312.174 38.65C310.274 37.45 308.758 35.7667 307.624 33.6C306.524 31.4 305.974 28.8833 305.974 26.05ZM327.774 26.15C327.774 24.45 327.441 23 326.774 21.8C326.108 20.5667 325.208 19.6333 324.074 19C322.941 18.3333 321.724 18 320.424 18C319.124 18 317.924 18.3167 316.824 18.95C315.724 19.5833 314.824 20.5167 314.124 21.75C313.458 22.95 313.124 24.3833 313.124 26.05C313.124 27.7167 313.458 29.1833 314.124 30.45C314.824 31.6833 315.724 32.6333 316.824 33.3C317.958 33.9667 319.158 34.3 320.424 34.3C321.724 34.3 322.941 33.9833 324.074 33.35C325.208 32.6833 326.108 31.75 326.774 30.55C327.441 29.3167 327.774 27.85 327.774 26.15ZM357.011 11.9C360.311 11.9 362.978 12.95 365.011 15.05C367.044 17.1167 368.061 20.0167 368.061 23.75V40H361.061V24.7C361.061 22.5 360.511 20.8167 359.411 19.65C358.311 18.45 356.811 17.85 354.911 17.85C352.978 17.85 351.444 18.45 350.311 19.65C349.211 20.8167 348.661 22.5 348.661 24.7V40H341.661V12.3H348.661V15.75C349.594 14.55 350.778 13.6167 352.211 12.95C353.678 12.25 355.278 11.9 357.011 11.9ZM401.218 12.3L384.068 53.1H376.618L382.618 39.3L371.518 12.3H379.368L386.518 31.65L393.768 12.3H401.218ZM451.305 11.9C454.705 11.9 457.438 12.95 459.505 15.05C461.605 17.1167 462.655 20.0167 462.655 23.75V40H455.655V24.7C455.655 22.5333 455.105 20.8833 454.005 19.75C452.905 18.5833 451.405 18 449.505 18C447.605 18 446.088 18.5833 444.955 19.75C443.855 20.8833 443.305 22.5333 443.305 24.7V40H436.305V24.7C436.305 22.5333 435.755 20.8833 434.655 19.75C433.555 18.5833 432.055 18 430.155 18C428.222 18 426.688 18.5833 425.555 19.75C424.455 20.8833 423.905 22.5333 423.905 24.7V40H416.905V12.3H423.905V15.65C424.805 14.4833 425.955 13.5667 427.355 12.9C428.788 12.2333 430.355 11.9 432.055 11.9C434.222 11.9 436.155 12.3667 437.855 13.3C439.555 14.2 440.872 15.5 441.805 17.2C442.705 15.6 444.005 14.3167 445.705 13.35C447.438 12.3833 449.305 11.9 451.305 11.9ZM481.598 40.45C478.931 40.45 476.531 39.8667 474.398 38.7C472.264 37.5 470.581 35.8167 469.348 33.65C468.148 31.4833 467.548 28.9833 467.548 26.15C467.548 23.3167 468.164 20.8167 469.398 18.65C470.664 16.4833 472.381 14.8167 474.548 13.65C476.714 12.45 479.131 11.85 481.798 11.85C484.464 11.85 486.881 12.45 489.048 13.65C491.214 14.8167 492.914 16.4833 494.148 18.65C495.414 20.8167 496.048 23.3167 496.048 26.15C496.048 28.9833 495.398 31.4833 494.098 33.65C492.831 35.8167 491.098 37.5 488.898 38.7C486.731 39.8667 484.298 40.45 481.598 40.45ZM481.598 34.35C482.864 34.35 484.048 34.05 485.148 33.45C486.281 32.8167 487.181 31.8833 487.848 30.65C488.514 29.4167 488.848 27.9167 488.848 26.15C488.848 23.5167 488.148 21.5 486.748 20.1C485.381 18.6667 483.698 17.95 481.698 17.95C479.698 17.95 478.014 18.6667 476.648 20.1C475.314 21.5 474.648 23.5167 474.648 26.15C474.648 28.7833 475.298 30.8167 476.598 32.25C477.931 33.65 479.598 34.35 481.598 34.35ZM508.182 16.6C509.082 15.1333 510.249 13.9833 511.682 13.15C513.149 12.3167 514.816 11.9 516.682 11.9V19.25H514.832C512.632 19.25 510.966 19.7667 509.832 20.8C508.732 21.8333 508.182 23.6333 508.182 26.2V40H501.182V12.3H508.182V16.6ZM547.147 25.55C547.147 26.55 547.081 27.45 546.947 28.25H526.697C526.864 30.25 527.564 31.8167 528.797 32.95C530.031 34.0833 531.547 34.65 533.347 34.65C535.947 34.65 537.797 33.5333 538.897 31.3H546.447C545.647 33.9667 544.114 36.1667 541.847 37.9C539.581 39.6 536.797 40.45 533.497 40.45C530.831 40.45 528.431 39.8667 526.297 38.7C524.197 37.5 522.547 35.8167 521.347 33.65C520.181 31.4833 519.597 28.9833 519.597 26.15C519.597 23.2833 520.181 20.7667 521.347 18.6C522.514 16.4333 524.147 14.7667 526.247 13.6C528.347 12.4333 530.764 11.85 533.497 11.85C536.131 11.85 538.481 12.4167 540.547 13.55C542.647 14.6833 544.264 16.3 545.397 18.4C546.564 20.4667 547.147 22.85 547.147 25.55ZM539.897 23.55C539.864 21.75 539.214 20.3167 537.947 19.25C536.681 18.15 535.131 17.6 533.297 17.6C531.564 17.6 530.097 18.1333 528.897 19.2C527.731 20.2333 527.014 21.6833 526.747 23.55H539.897ZM572.321 18.05V31.45C572.321 32.3833 572.537 33.0667 572.971 33.5C573.437 33.9 574.204 34.1 575.271 34.1H578.521V40H574.121C568.221 40 565.271 37.1333 565.271 31.4V18.05H561.971V12.3H565.271V5.45H572.321V12.3H578.521V18.05H572.321ZM587.105 9C585.872 9 584.839 8.61667 584.005 7.85C583.205 7.05 582.805 6.06666 582.805 4.9C582.805 3.73333 583.205 2.76666 584.005 2C584.839 1.2 585.872 0.799998 587.105 0.799998C588.339 0.799998 589.355 1.2 590.155 2C590.989 2.76666 591.405 3.73333 591.405 4.9C591.405 6.06666 590.989 7.05 590.155 7.85C589.355 8.61667 588.339 9 587.105 9ZM590.555 12.3V40H583.555V12.3H590.555ZM631.871 11.9C635.271 11.9 638.005 12.95 640.071 15.05C642.171 17.1167 643.221 20.0167 643.221 23.75V40H636.221V24.7C636.221 22.5333 635.671 20.8833 634.571 19.75C633.471 18.5833 631.971 18 630.071 18C628.171 18 626.655 18.5833 625.521 19.75C624.421 20.8833 623.871 22.5333 623.871 24.7V40H616.871V24.7C616.871 22.5333 616.321 20.8833 615.221 19.75C614.121 18.5833 612.621 18 610.721 18C608.788 18 607.255 18.5833 606.121 19.75C605.021 20.8833 604.471 22.5333 604.471 24.7V40H597.471V12.3H604.471V15.65C605.371 14.4833 606.521 13.5667 607.921 12.9C609.355 12.2333 610.921 11.9 612.621 11.9C614.788 11.9 616.721 12.3667 618.421 13.3C620.121 14.2 621.438 15.5 622.371 17.2C623.271 15.6 624.571 14.3167 626.271 13.35C628.005 12.3833 629.871 11.9 631.871 11.9ZM675.614 25.55C675.614 26.55 675.547 27.45 675.414 28.25H655.164C655.331 30.25 656.031 31.8167 657.264 32.95C658.497 34.0833 660.014 34.65 661.814 34.65C664.414 34.65 666.264 33.5333 667.364 31.3H674.914C674.114 33.9667 672.581 36.1667 670.314 37.9C668.047 39.6 665.264 40.45 661.964 40.45C659.297 40.45 656.897 39.8667 654.764 38.7C652.664 37.5 651.014 35.8167 649.814 33.65C648.647 31.4833 648.064 28.9833 648.064 26.15C648.064 23.2833 648.647 20.7667 649.814 18.6C650.981 16.4333 652.614 14.7667 654.714 13.6C656.814 12.4333 659.231 11.85 661.964 11.85C664.597 11.85 666.947 12.4167 669.014 13.55C671.114 14.6833 672.731 16.3 673.864 18.4C675.031 20.4667 675.614 22.85 675.614 25.55ZM668.364 23.55C668.331 21.75 667.681 20.3167 666.414 19.25C665.147 18.15 663.597 17.6 661.764 17.6C660.031 17.6 658.564 18.1333 657.364 19.2C656.197 20.2333 655.481 21.6833 655.214 23.55H668.364Z" fill="white"/>
</svg>
