<svg width="28" height="28" viewBox="0 0 28 28" fill="none" xmlns="http://www.w3.org/2000/svg">
<g id="Group 1171274984">
<circle id="Ellipse 14" cx="14" cy="14" r="14" transform="matrix(-1 0 0 1 28 0)" fill="#F65B0B"/>
<path id="arrow" opacity="0.8" fill-rule="evenodd" clip-rule="evenodd" d="M12.2524 13.9991L16.7502 18.5347C17.0831 18.8709 17.0831 19.413 16.7502 19.7491C16.5916 19.9097 16.3752 20 16.1496 20C15.9239 20 15.7075 19.9097 15.5489 19.7491L10.4504 14.6072C10.1165 14.2714 10.1165 13.7286 10.4504 13.3928L15.5487 8.25089C15.7075 8.09032 15.9239 8 16.1496 8C16.3752 8 16.5916 8.09032 16.7504 8.25089C17.0831 8.58707 17.0831 9.1292 16.75 9.46527L12.2524 13.9991Z" fill="white"/>
</g>
</svg>
