<svg width="735" height="121" viewBox="0 0 735 121" fill="none" xmlns="http://www.w3.org/2000/svg">
<path d="M39.4192 113.262C32.0843 113.262 25.4797 112.005 19.5996 109.495C13.7225 106.982 9.07595 103.368 5.66007 98.6437C2.24418 93.9224 0.48448 88.3472 0.386719 81.9151H22.9925C23.2944 86.2367 24.8241 89.6525 27.5873 92.1627C30.3504 94.6757 34.143 95.9294 38.9649 95.9294C43.8875 95.9294 47.7548 94.7476 50.5697 92.3898C53.3818 90.0292 54.7907 86.9382 54.7907 83.1198C54.7907 80.0058 53.8361 77.4439 51.9269 75.4341C50.0177 73.4242 47.6311 71.8428 44.7702 70.6869C41.9064 69.531 37.9643 68.2515 32.9382 66.8426C26.1065 64.8327 20.5542 62.8488 16.2872 60.8907C12.0174 58.9326 8.34848 55.9681 5.28626 51.9973C2.22117 48.0294 0.691502 42.7301 0.691502 36.0968C0.691502 29.8688 2.24705 24.4431 5.3639 19.8224C8.47787 15.2018 12.8484 11.6594 18.4754 9.19812C24.1024 6.73685 30.5316 5.50626 37.7659 5.50626C48.6174 5.50626 57.4331 8.14286 64.2131 13.4191C70.996 18.6924 74.7368 26.0533 75.4413 35.4958H52.2345C52.0333 31.8787 50.5007 28.8883 47.6369 26.5277C44.7731 24.1671 40.9805 22.9853 36.2592 22.9853C32.1389 22.9853 28.8495 24.0405 26.3883 26.151C23.927 28.2615 22.6964 31.3266 22.6964 35.3434C22.6964 38.1555 23.6251 40.4931 25.4854 42.3506C27.3429 44.2081 29.6546 45.7147 32.4178 46.8706C35.181 48.0265 39.0742 49.3578 44.0974 50.8645C50.9291 52.8743 56.5044 54.8842 60.826 56.8911C65.1447 58.901 68.8625 61.9143 71.9765 65.934C75.0905 69.9537 76.6489 75.2271 76.6489 81.7569C76.6489 87.3839 75.1911 92.6084 72.2784 97.4303C69.3657 102.255 65.0958 106.096 59.4688 108.96C53.8418 111.824 47.1625 113.256 39.425 113.256L39.4192 113.262Z" fill="#E9E9E9"/>
<path d="M173.698 28.716V112.207H152.449V101.657C149.735 105.274 146.195 108.112 141.825 110.171C137.454 112.23 132.707 113.259 127.583 113.259C121.053 113.259 115.274 111.879 110.251 109.116C105.228 106.353 101.283 102.284 98.4188 96.91C95.5549 91.5331 94.123 85.1297 94.123 77.6942V28.716H115.222V74.6808C115.222 81.3113 116.881 86.4121 120.196 89.9775C123.512 93.5429 128.035 95.3285 133.759 95.3285C139.585 95.3285 144.159 93.5458 147.475 89.9775C150.79 86.4093 152.449 81.3113 152.449 74.6808V28.716H173.698Z" fill="#E9E9E9"/>
<path d="M215.594 40.7717C218.306 36.9533 222.049 33.7645 226.822 31.2026C231.595 28.6407 237.044 27.3583 243.174 27.3583C250.308 27.3583 256.763 29.1151 262.54 32.6316C268.316 36.1482 272.888 41.1455 276.255 47.6265C279.619 54.1075 281.304 61.6149 281.304 70.1546C281.304 78.6943 279.622 86.2564 276.255 92.8352C272.891 99.4168 268.316 104.515 262.54 108.132C256.763 111.749 250.308 113.558 243.174 113.558C237.047 113.558 231.647 112.301 226.975 109.791C222.302 107.278 218.51 104.115 215.597 100.297V151.989H194.498V28.7126H215.597V40.7688L215.594 40.7717ZM259.751 70.1575C259.751 65.1343 258.721 60.7896 256.663 57.1236C254.604 53.4547 251.889 50.6686 248.525 48.7593C245.161 46.8501 241.518 45.8955 237.599 45.8955C233.781 45.8955 230.189 46.876 226.825 48.8341C223.461 50.7922 220.747 53.633 218.688 57.3479C216.627 61.0657 215.6 65.4362 215.6 70.4594C215.6 75.4826 216.629 79.8531 218.688 83.5709C220.747 87.2887 223.461 90.1266 226.825 92.0847C230.189 94.0428 233.784 95.0232 237.599 95.0232C241.518 95.0232 245.161 94.0198 248.525 92.0099C251.889 90.0001 254.604 87.1363 256.663 83.4214C258.724 79.7036 259.751 75.2842 259.751 70.1575Z" fill="#E9E9E9"/>
<path d="M374.283 68.6536C374.283 71.6669 374.082 74.3813 373.679 76.7908H312.645C313.148 82.8175 315.258 87.5416 318.976 90.9575C322.694 94.3734 327.266 96.0813 332.689 96.0813C340.527 96.0813 346.102 92.7172 349.417 85.986H372.172C369.76 94.0226 365.139 100.63 358.308 105.803C351.476 110.978 343.086 113.563 333.14 113.563C325.103 113.563 317.895 111.781 311.515 108.212C305.134 104.644 300.163 99.5978 296.595 93.0679C293.029 86.5381 291.244 79.0019 291.244 70.4622C291.244 61.8218 293 54.2368 296.52 47.704C300.036 41.1742 304.959 36.151 311.288 32.6344C317.619 29.1179 324.902 27.3611 333.14 27.3611C341.076 27.3611 348.184 29.069 354.463 32.4849C360.743 35.9008 365.617 40.7486 369.081 47.0283C372.549 53.308 374.28 60.5164 374.28 68.6536H374.283ZM352.43 62.6269C352.33 57.2012 350.372 52.8566 346.553 49.5902C342.735 46.3267 338.065 44.6935 332.539 44.6935C327.315 44.6935 322.918 46.275 319.353 49.4407C315.784 52.6064 313.602 57.0028 312.797 62.6269H352.43Z" fill="#E9E9E9"/>
<path d="M410.757 41.6781C413.468 37.2587 417.011 33.7911 421.381 31.2781C425.752 28.765 430.749 27.5114 436.376 27.5114V49.6657H430.801C424.17 49.6657 419.173 51.2241 415.806 54.3381C412.439 57.4521 410.757 62.8779 410.757 70.6154V112.21H389.658V28.719H410.757V41.6781Z" fill="#E9E9E9"/>
<path d="M515.494 7.01562V24.0462H471.639V51.0224H505.246V67.7482H471.639V112.206H450.543V7.01562H515.494Z" fill="#E9E9E9"/>
<path d="M551.513 0.687073V112.206H530.414V0.687073H551.513Z" fill="#E9E9E9"/>
<path d="M649.923 68.6536C649.923 71.6669 649.722 74.3813 649.319 76.7908H588.285C588.788 82.8175 590.898 87.5416 594.616 90.9575C598.334 94.3734 602.906 96.0813 608.329 96.0813C616.167 96.0813 621.742 92.7172 625.057 85.986H647.813C645.4 94.0226 640.78 100.63 633.948 105.803C627.116 110.978 618.726 113.563 608.78 113.563C600.744 113.563 593.535 111.781 587.155 108.212C580.774 104.644 575.803 99.5978 572.235 93.0679C568.669 86.5381 566.884 79.0019 566.884 70.4622C566.884 61.8218 568.641 54.2368 572.16 47.704C575.677 41.1742 580.599 36.151 586.928 32.6344C593.259 29.1179 600.542 27.3611 608.78 27.3611C616.716 27.3611 623.824 29.069 630.104 32.4849C636.383 35.9008 641.257 40.7486 644.722 47.0283C648.189 53.308 649.92 60.5164 649.92 68.6536H649.923ZM628.071 62.6269C627.97 57.2012 626.012 52.8566 622.194 49.5902C618.375 46.3267 613.706 44.6935 608.179 44.6935C602.955 44.6935 598.558 46.275 594.993 49.4407C591.425 52.6064 589.242 57.0028 588.437 62.6269H628.071Z" fill="#E9E9E9"/>
<path d="M711.408 112.207L694.228 86.2857L679.006 112.207H656.4L683.678 70.3104L656.101 28.716H679.912L696.942 54.4874H717.923L734.917 28.716H712.314L696.942 54.4874L707.489 70.3104L735.218 112.207H711.408Z" fill="#E9E9E9"/>
<path fill-rule="evenodd" clip-rule="evenodd" d="M696.942 54.4875L712.314 28.716H734.917L717.924 54.4875H696.942Z" fill="#F65B0B"/>
</svg>
