<svg width="385" height="87" viewBox="0 0 385 87" fill="none" xmlns="http://www.w3.org/2000/svg">
<path fill-rule="evenodd" clip-rule="evenodd" d="M34.4841 26.0767C36.1307 25.7543 37.6382 26.074 39.0101 26.7942C41.2877 27.9904 39.6838 28.0213 43.2418 28.0096C43.8966 28.0075 45.5166 28.0878 46.0575 27.965C46.9794 27.7558 48.6008 25.5451 52.2258 26.0191C58.3858 26.8244 60.7312 35.4173 54.2945 38.6329C51.9799 39.7893 46.639 39.3146 43.7191 39.3146C41.0389 39.3146 35.0376 39.7029 32.9731 38.7927C26.9418 36.1341 27.6903 27.4074 34.4848 26.0767H34.4841ZM42.3276 6.19789L42.329 13.083C38.792 13.7147 37.9331 15.5193 36.6541 17.7979C32.2575 18.1552 30.5557 17.0763 27.6351 19.9427C25.196 22.3372 25.7195 25.1631 25.7195 29.0535C20.1906 29.1043 21.0733 29.9198 21.0733 35.2596C21.0733 40.351 20.0494 41.8456 25.7055 41.7619L25.7195 48.6566C23.6263 48.1436 20.2382 46.5104 18.1136 45.6613C16.5858 45.0502 11.6398 42.8333 10.3714 42.7277L2.60263 50.3083C2.1183 50.7514 0.324979 52.5923 0 53.1514C3.14076 53.9415 29.7073 65.3933 30.6172 65.2143C31.5369 65.0332 41.9593 53.7872 43.5933 52.9655C44.1601 53.755 55.4575 64.894 56.1032 65.25L87 53.0293L76.3491 42.6735L61.298 48.5325L61.277 41.7695C66.8324 41.7846 65.8841 40.5678 65.8841 35.4935C65.8841 29.9672 66.9282 29.1578 61.2701 29.0426C61.2854 25.1343 61.7984 22.5862 59.4397 20.0662C56.8741 17.326 54.7439 17.9412 50.3864 17.8191C49.2249 16.437 49.1333 13.9987 44.6696 13.061L44.671 6.23423C48.0598 4.88712 47.1597 0.0220129 43.4836 6.40251e-05C39.9179 -0.0205131 38.8374 4.92485 42.3269 6.1972L42.3276 6.19789Z" fill="#E9E9E9"/>
<path fill-rule="evenodd" clip-rule="evenodd" d="M47.1252 87.0001C47.9845 86.8531 75.4185 74.4097 76.021 73.9103L76.1245 61.6258C74.8896 61.9008 68.2725 64.883 66.6182 65.6137C64.9487 66.3515 58.3262 69.4547 57.0237 69.5763C55.6952 68.285 47.9055 60.037 47.1497 59.8126L47.1245 87.0001H47.1252Z" fill="#F65B0B"/>
<path fill-rule="evenodd" clip-rule="evenodd" d="M10.8998 62.2306L10.875 74.1736C11.9113 74.9669 38.7485 86.9328 39.7741 87C39.8029 83.2738 40.0661 62.8064 39.6059 61.625C38.6273 61.9535 32.0807 68.9293 30.733 70.2741C29.562 71.443 29.3805 70.9621 26.7051 69.6505C24.6305 68.6334 12.0278 62.2777 10.9005 62.2306H10.8998Z" fill="#F65B0B"/>
<path fill-rule="evenodd" clip-rule="evenodd" d="M35.3187 29.1753C30.5213 30.6047 32.7228 37.3376 37.2945 36.0988C41.8133 34.8736 39.9135 27.806 35.3187 29.1753Z" fill="#F65B0B"/>
<path fill-rule="evenodd" clip-rule="evenodd" d="M49.2159 29.121C45.847 30.135 46.7622 37.0559 50.431 36.1724C53.784 35.3655 53.0316 27.9725 49.2159 29.121Z" fill="#F65B0B"/>
<path d="M112.913 71.1067C110.051 71.1067 107.474 70.6165 105.18 69.6372C102.887 68.6568 101.075 67.2467 99.7419 65.4037C98.4092 63.5617 97.7227 61.3866 97.6846 58.8773H106.504C106.622 60.5633 107.218 61.8959 108.296 62.8752C109.374 63.8556 110.854 64.3447 112.735 64.3447C114.656 64.3447 116.165 63.8837 117.263 62.9638C118.36 62.0429 118.909 60.837 118.909 59.3473C118.909 58.1324 118.537 57.1329 117.792 56.3488C117.047 55.5647 116.116 54.9477 115 54.4968C113.883 54.0458 112.345 53.5466 110.384 52.997C107.719 52.2128 105.553 51.4388 103.888 50.6749C102.222 49.911 100.791 48.7545 99.5961 47.2053C98.4003 45.6573 97.8035 43.5898 97.8035 41.0019C97.8035 38.5722 98.4104 36.4554 99.6263 34.6527C100.841 32.8501 102.546 31.4681 104.742 30.5078C106.937 29.5476 109.445 29.0675 112.267 29.0675C116.501 29.0675 119.94 30.0961 122.585 32.1546C125.232 34.2119 126.691 37.0836 126.966 40.7675H117.912C117.834 39.3563 117.236 38.1897 116.119 37.2687C115.001 36.3477 113.522 35.8867 111.68 35.8867C110.072 35.8867 108.789 36.2984 107.829 37.1217C106.868 37.9451 106.388 39.1409 106.388 40.708C106.388 41.8051 106.751 42.7171 107.476 43.4418C108.201 44.1664 109.103 44.7542 110.181 45.2052C111.259 45.6561 112.778 46.1755 114.738 46.7633C117.403 47.5474 119.578 48.3316 121.264 49.1145C122.949 49.8987 124.399 51.0743 125.614 52.6425C126.829 54.2107 127.437 56.268 127.437 58.8156C127.437 61.0108 126.868 63.0491 125.732 64.9303C124.596 66.8126 122.93 68.3113 120.735 69.4285C118.539 70.5458 115.933 71.1045 112.915 71.1045L112.913 71.1067Z" fill="#E9E9E9"/>
<path d="M165.299 38.1225V70.6952H157.009V66.5794C155.95 67.9906 154.57 69.0978 152.864 69.901C151.159 70.7042 149.307 71.1058 147.308 71.1058C144.761 71.1058 142.506 70.5673 140.546 69.4893C138.587 68.4113 137.048 66.824 135.93 64.7274C134.813 62.6297 134.254 60.1315 134.254 57.2306V38.1225H142.486V56.055C142.486 58.6418 143.133 60.6318 144.427 62.0228C145.72 63.4138 147.484 64.1104 149.718 64.1104C151.991 64.1104 153.775 63.4149 155.069 62.0228C156.362 60.6307 157.009 58.6418 157.009 56.055V38.1225H165.299Z" fill="#E9E9E9"/>
<path d="M181.644 42.8258C182.702 41.3361 184.163 40.092 186.025 39.0926C187.887 38.0931 190.013 37.5928 192.404 37.5928C195.188 37.5928 197.706 38.2782 199.959 39.6501C202.213 41.022 203.997 42.9716 205.31 45.5001C206.623 48.0285 207.28 50.9574 207.28 54.2891C207.28 57.6207 206.624 60.571 205.31 63.1376C203.998 65.7053 202.213 67.6942 199.959 69.1053C197.706 70.5165 195.188 71.2221 192.404 71.2221C190.014 71.2221 187.907 70.7319 186.084 69.7526C184.262 68.7722 182.782 67.5382 181.646 66.0485V86.2156H173.414V38.1211H181.646V42.8247L181.644 42.8258ZM198.871 54.2902C198.871 52.3305 198.47 50.6355 197.667 49.2052C196.863 47.7739 195.804 46.6869 194.492 45.9421C193.18 45.1972 191.758 44.8248 190.229 44.8248C188.74 44.8248 187.339 45.2073 186.026 45.9712C184.714 46.7351 183.655 47.8434 182.851 49.2927C182.047 50.7432 181.647 52.4483 181.647 54.408C181.647 56.3677 182.048 58.0728 182.851 59.5233C183.655 60.9737 184.714 62.0809 186.026 62.8448C187.339 63.6087 188.741 63.9912 190.229 63.9912C191.758 63.9912 193.18 63.5997 194.492 62.8156C195.804 62.0315 196.863 60.9142 197.667 59.4649C198.471 58.0145 198.871 56.2903 198.871 54.2902Z" fill="#E9E9E9"/>
<path d="M243.554 53.7035C243.554 54.8791 243.476 55.938 243.319 56.8781H219.507C219.703 59.2293 220.527 61.0723 221.977 62.405C223.428 63.7377 225.211 64.404 227.327 64.404C230.385 64.404 232.56 63.0915 233.853 60.4655H242.731C241.79 63.6008 239.987 66.1786 237.322 68.1967C234.656 70.2158 231.383 71.2243 227.503 71.2243C224.368 71.2243 221.555 70.5288 219.066 69.1367C216.577 67.7446 214.637 65.7759 213.245 63.2284C211.854 60.6808 211.158 57.7407 211.158 54.4091C211.158 51.0382 211.843 48.079 213.216 45.5303C214.588 42.9828 216.509 41.0231 218.978 39.6511C221.448 38.2792 224.289 37.5938 227.503 37.5938C230.599 37.5938 233.372 38.2601 235.822 39.5928C238.272 40.9255 240.173 42.8168 241.525 45.2667C242.878 47.7166 243.553 50.5289 243.553 53.7035H243.554ZM235.029 51.3523C234.99 49.2355 234.226 47.5405 232.736 46.2662C231.246 44.993 229.425 44.3558 227.268 44.3558C225.23 44.3558 223.515 44.9728 222.124 46.2078C220.732 47.4429 219.881 49.1581 219.566 51.3523H235.029Z" fill="#E9E9E9"/>
<path d="M257.784 43.1794C258.842 41.4553 260.224 40.1024 261.929 39.122C263.634 38.1416 265.584 37.6525 267.779 37.6525V46.2957H265.604C263.017 46.2957 261.068 46.9037 259.754 48.1186C258.44 49.3334 257.784 51.4502 257.784 54.4689V70.6963H249.553V38.1237H257.784V43.1794Z" fill="#E9E9E9"/>
<path d="M298.646 29.6565V36.3007H281.537V46.825H294.648V53.3504H281.537V70.695H273.306V29.6565H298.646Z" fill="#E9E9E9"/>
<path d="M312.698 27.1874V70.695H304.466V27.1874H312.698Z" fill="#E9E9E9"/>
<path d="M351.091 53.7035C351.091 54.8791 351.013 55.938 350.856 56.8781H327.044C327.24 59.2293 328.064 61.0723 329.514 62.405C330.965 63.7377 332.748 64.404 334.864 64.404C337.922 64.404 340.097 63.0915 341.39 60.4655H350.268C349.327 63.6008 347.524 66.1786 344.859 68.1967C342.194 70.2158 338.92 71.2243 335.04 71.2243C331.905 71.2243 329.092 70.5288 326.603 69.1367C324.114 67.7446 322.175 65.7759 320.782 63.2284C319.391 60.6808 318.695 57.7407 318.695 54.4091C318.695 51.0382 319.38 48.079 320.753 45.5303C322.125 42.9828 324.046 41.0231 326.515 39.6511C328.985 38.2792 331.826 37.5938 335.04 37.5938C338.136 37.5938 340.909 38.2601 343.359 39.5928C345.809 40.9255 347.71 42.8168 349.062 45.2667C350.415 47.7166 351.09 50.5289 351.09 53.7035H351.091ZM342.566 51.3523C342.527 49.2355 341.763 47.5405 340.273 46.2662C338.783 44.993 336.962 44.3558 334.806 44.3558C332.767 44.3558 331.052 44.9728 329.661 46.2078C328.269 47.4429 327.418 49.1581 327.104 51.3523H342.566Z" fill="#E9E9E9"/>
<path d="M375.079 70.6952L368.377 60.5825L362.438 70.6952H353.619L364.261 54.35L353.502 38.1225H362.791L369.435 48.1769H377.621L384.251 38.1225H375.432L369.435 48.1769L373.55 54.35L384.368 70.6952H375.079Z" fill="#E9E9E9"/>
<path fill-rule="evenodd" clip-rule="evenodd" d="M369.436 48.1769L375.432 38.1225H384.251L377.621 48.1769H369.436Z" fill="#F65B0B"/>
</svg>
