<svg width="62" height="62" viewBox="0 0 62 62" fill="none" xmlns="http://www.w3.org/2000/svg">
<g id="Group 22">
<path id="Vector" fill-rule="evenodd" clip-rule="evenodd" d="M24.5749 18.5834C25.7483 18.3537 26.8226 18.5815 27.8003 19.0947C29.4234 19.9472 28.2804 19.9692 30.816 19.9609C31.2826 19.9594 32.4371 20.0166 32.8226 19.9291C33.4795 19.78 34.635 18.2046 37.2184 18.5424C41.6083 19.1162 43.2797 25.2399 38.6927 27.5315C37.0431 28.3556 33.237 28.0173 31.1561 28.0173C29.2461 28.0173 24.9693 28.294 23.4981 27.6454C19.1999 25.7507 19.7333 19.5317 24.5754 18.5834H24.5749ZM30.1645 4.41689L30.1655 9.3235C27.6449 9.77369 27.0328 11.0597 26.1213 12.6835C22.9881 12.9382 21.7753 12.1693 19.694 14.212C17.9558 15.9184 18.3288 17.9323 18.3288 20.7048C14.3887 20.741 15.0178 21.3222 15.0178 25.1275C15.0178 28.7559 14.2881 29.821 18.3188 29.7614L18.3288 34.6748C16.8371 34.3092 14.4226 33.1454 12.9085 32.5402C11.8198 32.1047 8.29506 30.5249 7.39109 30.4496L1.85475 35.8519C1.5096 36.1677 0.231594 37.4796 0 37.878C2.23825 38.4411 21.1707 46.6022 21.8192 46.4746C22.4746 46.3455 29.902 38.3311 31.0665 37.7455C31.4704 38.3081 39.5214 46.2463 39.9816 46.5L62 37.791L54.4097 30.411L43.6836 34.5864L43.6687 29.7668C47.6277 29.7775 46.9519 28.9104 46.9519 25.2942C46.9519 21.3559 47.6959 20.7791 43.6637 20.697C43.6747 17.9118 44.0402 16.0959 42.3593 14.3C40.531 12.3472 39.0129 12.7857 35.9076 12.6987C35.0798 11.7138 35.0145 9.97605 31.8335 9.30786L31.8345 4.44279C34.2495 3.48278 33.6081 0.0156874 30.9883 4.56271e-05C28.4472 -0.0146185 27.6772 3.50967 30.164 4.4164L30.1645 4.41689Z" fill="white"/>
<path id="Vector_2" fill-rule="evenodd" clip-rule="evenodd" d="M33.5838 62C34.1962 61.8952 53.7468 53.0275 54.1762 52.6716L54.25 43.9172C53.3699 44.1131 48.6543 46.2384 47.4754 46.7591C46.2856 47.2849 41.5662 49.4963 40.6379 49.5831C39.6912 48.6628 34.1399 42.7849 33.6013 42.625L33.5833 62H33.5838Z" fill="#F65B0B"/>
<path id="Vector_3" fill-rule="evenodd" clip-rule="evenodd" d="M7.76766 44.3482L7.75 52.8593C8.48849 53.4247 27.6139 61.9521 28.3447 62C28.3653 59.3445 28.5529 44.7585 28.2249 43.9167C27.5275 44.1507 22.8621 49.122 21.9017 50.0804C21.0672 50.9134 20.9378 50.5707 19.0312 49.636C17.5528 48.9111 8.57156 44.3818 7.76814 44.3482H7.76766Z" fill="#F65B0B"/>
<path id="Vector_4" fill-rule="evenodd" clip-rule="evenodd" d="M25.17 20.7915C21.7512 21.8101 23.32 26.6083 26.578 25.7255C29.7983 24.8524 28.4445 19.8157 25.17 20.7915Z" fill="#F65B0B"/>
<path id="Vector_5" fill-rule="evenodd" clip-rule="evenodd" d="M35.0738 20.7528C32.6729 21.4755 33.3251 26.4076 35.9396 25.7779C38.3292 25.2029 37.793 19.9344 35.0738 20.7528Z" fill="#F65B0B"/>
</g>
</svg>
