<svg width="36" height="36" viewBox="0 0 36 36" fill="none" xmlns="http://www.w3.org/2000/svg">
<g id="Frame" clip-path="url(#clip0_50_5264)">
<g id="Group">
<g id="Layer 2">
<g id="08.whatsapp">
<path id="Vector" d="M18 36C27.9411 36 36 27.9411 36 18C36 8.05888 27.9411 0 18 0C8.05888 0 0 8.05888 0 18C0 27.9411 8.05888 36 18 36Z" fill="#2AA81A"/>
<g id="Group_2">
<path id="Vector_2" d="M24.3499 11.6502C22.8521 10.1354 20.862 9.20601 18.7391 9.02986C16.6161 8.85371 14.5001 9.44238 12.7731 10.6896C11.0461 11.9368 9.82192 13.7604 9.32157 15.831C8.82122 17.9017 9.07768 20.083 10.0446 21.9812L9.09728 26.5807C9.08713 26.6266 9.08674 26.6742 9.09612 26.7203C9.1055 26.7664 9.12446 26.81 9.15175 26.8483C9.19084 26.9063 9.24671 26.951 9.31189 26.9764C9.37707 27.0018 9.44845 27.0067 9.51649 26.9904L14.0165 25.9223C15.9094 26.8639 18.0751 27.1032 20.128 26.5977C22.1809 26.0922 23.9879 24.8747 25.2272 23.1618C26.4665 21.4489 27.0578 19.3518 26.8959 17.2438C26.7339 15.1358 25.8292 13.1536 24.3428 11.6502H24.3499ZM22.9431 22.8694C21.9072 23.9034 20.5732 24.5868 19.1288 24.8234C17.6844 25.0601 16.2021 24.838 14.8904 24.1886L14.2604 23.8759L11.4965 24.5296V24.4941L12.0791 21.7065L11.7712 21.1002C11.1005 19.7849 10.8637 18.291 11.0948 16.8328C11.3258 15.3746 12.0129 14.0271 13.0573 12.9836C14.3687 11.6735 16.1465 10.9377 18.0002 10.9377C19.8538 10.9377 21.6317 11.6735 22.9431 12.9836L22.9739 13.0262C24.2682 14.3404 24.9908 16.1129 24.9841 17.9575C24.9775 19.8021 24.2421 21.5693 22.9383 22.8741L22.9431 22.8694Z" fill="white"/>
<path id="Vector_3" d="M22.699 20.8421C22.3603 21.375 21.8227 22.0263 21.1524 22.1897C19.9682 22.4739 18.1658 22.1897 15.9087 20.1031L15.8803 20.0771C13.9169 18.2439 13.3958 16.7163 13.5119 15.506C13.5806 14.8168 14.1537 14.1963 14.6369 13.7889C14.7137 13.7241 14.8046 13.6782 14.9023 13.6549C15 13.6315 15.1019 13.6313 15.1997 13.6543C15.2975 13.6773 15.3886 13.7229 15.4656 13.7874C15.5427 13.8519 15.6036 13.9335 15.6435 14.0258L16.3706 15.6694C16.418 15.7752 16.4358 15.892 16.4221 16.0071C16.4083 16.1223 16.3635 16.2315 16.2924 16.3231L15.9229 16.7968C15.8461 16.8951 15.8004 17.0141 15.7915 17.1386C15.7827 17.263 15.8111 17.3873 15.8732 17.4955C16.2241 18.0128 16.6441 18.4797 17.1213 18.8834C17.6349 19.3776 18.2172 19.7948 18.8503 20.1221C18.9658 20.1686 19.0926 20.1798 19.2145 20.154C19.3364 20.1283 19.4479 20.0669 19.5348 19.9776L19.9587 19.5465C20.0394 19.4598 20.1425 19.3971 20.2566 19.3653C20.3707 19.3335 20.4914 19.334 20.6053 19.3665L22.3342 19.8615C22.4322 19.8894 22.5222 19.94 22.5971 20.0091C22.6719 20.0782 22.7294 20.164 22.7649 20.2595C22.8004 20.3549 22.8129 20.4574 22.8015 20.5586C22.79 20.6598 22.7549 20.7569 22.699 20.8421Z" fill="white"/>
</g>
</g>
</g>
</g>
</g>
<defs>
<clipPath id="clip0_50_5264">
<rect width="36" height="36" fill="white"/>
</clipPath>
</defs>
</svg>
